<?xml version="1.0" encoding="utf-8"?>
<!-- Generator: Adobe Illustrator 26.3.1, SVG Export Plug-In . SVG Version: 6.00 Build 0)  -->
<svg version="1.1" id="Layer_1" xmlns="http://www.w3.org/2000/svg" xmlns:xlink="http://www.w3.org/1999/xlink" x="0px" y="0px"
	 width="532.2px" height="117.6px" viewBox="0 0 532.2 117.6" style="enable-background:new 0 0 532.2 117.6;" xml:space="preserve"
	>
<style type="text/css">
	.st0{fill:#6C6C6C;}
	.st1{fill:#001F61;}
	.st2{fill:#262626;}
	.st3{enable-background:new    ;}
</style>
<g id="Group_6" transform="translate(-2790 -3044)">
	<path id="Path_9" class="st0" d="M2827.3,3085.4c2.6,0,4.6-2.1,4.6-4.6c0-2.6-2.1-4.6-4.6-4.6c-2.6,0-4.6,2.1-4.6,4.6l0,0
		C2822.7,3083.3,2824.7,3085.4,2827.3,3085.4z"/>
	<path id="logo-c" class="st1" d="M2827.4,3095.7c-8.1,0-14.7-6.6-14.7-14.8c0-8.1,6.6-14.7,14.8-14.7c3.9,0,7.6,1.5,10.4,4.3
		l-3.8,3.8c-3.6-3.7-9.6-3.7-13.2,0c-1.8,1.8-2.8,4.1-2.8,6.6c0,5.2,4.2,9.4,9.4,9.4c2.8,0,5.4-1.2,7.2-3.4l4.1,3.4
		C2835.9,3093.8,2831.7,3095.7,2827.4,3095.7L2827.4,3095.7z"/>
	<path id="Path_10" class="st0" d="M2827.1,3118.1c-20.4,0.1-37.1-16.4-37.2-36.8c-0.1-20.4,16.4-37.1,36.8-37.2c0.1,0,0.3,0,0.4,0
		v17.5c-10.8,0-19.6,8.8-19.6,19.6s8.8,19.6,19.6,19.6s19.6-8.8,19.6-19.6h17.5C2864.1,3101.5,2847.5,3118,2827.1,3118.1z"/>
	<path id="Path_11" class="st0" d="M2855.7,3064.7l-14.7,16.4h29.4L2855.7,3064.7z"/>
	<path id="core" class="st2" d="M2924,3111.2c6,0.2,12-1.4,17.2-4.4v7.5c-4.8,2.6-11,3.8-18.2,3.8c-9.3,0-16.9-3-22.5-9.1
		s-8.5-14-8.5-23.7c0-10.5,3.2-19,9.5-25.5s14.4-9.7,24.1-9.7c6.2,0,11.4,0.9,15.5,2.7v8.2c-4.8-2.6-10.1-4-15.6-4
		c-7.6,0-13.7,2.6-18.4,7.6s-7.1,11.8-7.1,20.2c0,8,2.2,14.4,6.6,19.1C2911.1,3108.8,2916.8,3111.2,2924,3111.2z M2990.3,3111.3
		c-4.2,4.5-9.9,6.8-17.1,6.8c-6.9,0-12.5-2.2-16.7-6.6s-6.2-10.2-6.2-17.5c0-7.9,2.1-14,6.5-18.5c4.3-4.4,10.1-6.6,17.5-6.6
		c7,0,12.5,2.1,16.4,6.4c4,4.3,5.9,10.3,5.9,17.9C2996.7,3100.9,2994.5,3106.8,2990.3,3111.3L2990.3,3111.3z M2985.1,3080.1
		c-2.6-3.2-6.4-4.8-11.2-4.8c-4.4-0.2-8.6,1.6-11.5,4.9c-2.8,3.3-4.2,7.9-4.2,13.6c0,5.6,1.4,9.9,4.3,13.2c2.9,3.2,7.1,5,11.4,4.8
		c4.8,0,8.6-1.5,11.2-4.7c2.6-3.2,3.9-7.7,3.9-13.4C2989,3087.8,2987.7,3083.2,2985.1,3080.1L2985.1,3080.1z M3027.5,3076.2
		c-3.2,0-5.9,1.5-8.1,4.6c-2.2,3-3.2,7.2-3.2,12.4v24h-7.5v-47h7.5v9.7h0.2c0.9-3,2.6-5.7,4.9-7.7c2-1.8,4.7-2.8,7.4-2.8
		c1.5-0.1,3.1,0.2,4.5,0.7v7.8C3032,3076.6,3030,3076.2,3027.5,3076.2L3027.5,3076.2z M3046,3095.4c0.1,5.2,1.5,9.3,4.2,12.1
		s6.4,4.3,11.1,4.3c5.3,0,10.5-1.9,14.6-5.2v7.1c-4.2,3-9.6,4.5-16.4,4.5c-6.7,0-11.9-2.1-15.7-6.4c-3.8-4.3-5.7-10.3-5.7-18
		c0-7.3,2.1-13.3,6.2-17.9c3.9-4.5,9.5-7,15.5-6.9c6.2,0,10.9,2,14.3,6c3.4,4,5,9.5,5,16.6v4L3046,3095.4L3046,3095.4L3046,3095.4z
		 M3068.4,3078.9c-2.2-2.5-5.3-3.8-8.6-3.6c-3.4-0.1-6.7,1.3-9.1,3.8c-2.6,2.7-4.2,6.2-4.6,9.9h25.4
		C3071.5,3084.7,3070.5,3081.3,3068.4,3078.9L3068.4,3078.9z"/>
	<path id="Path_12" class="st0" d="M3138.6,3117.1l-7-18.5h-28l-6.6,18.5h-8.6l25.3-65.8h8l25.3,65.8H3138.6z M3118.8,3063.7
		c-0.5-1.4-0.8-2.9-1-4.4h-0.2c-0.2,1.5-0.6,3-1.1,4.4l-10.2,28.1h22.9L3118.8,3063.7z M3160.8,3110.7h27.6v6.4h-38.6v-2.4
		l27.8-38.2h-25.2v-6.4h36.3v2.1L3160.8,3110.7z M3228.9,3117.1v-7.5h-0.2c-3.1,5.7-8,8.5-14.5,8.5c-11.2,0-16.8-6.6-16.8-20V3070
		h7.5v26.9c0,9.9,3.8,14.8,11.4,14.8c3.5,0.1,6.8-1.4,9.1-4c2.5-3,3.7-6.8,3.6-10.6V3070h7.5v47L3228.9,3117.1L3228.9,3117.1z
		 M3270.5,3076.2c-3.2,0-5.9,1.5-8.1,4.6c-2.2,3-3.2,7.2-3.2,12.4v24h-7.5v-47h7.5v9.7h0.2c0.9-3,2.6-5.7,4.9-7.7
		c2-1.8,4.7-2.8,7.4-2.8c1.5-0.1,3.1,0.2,4.5,0.7v7.8C3274.5,3076.7,3272.5,3076.1,3270.5,3076.2L3270.5,3076.2z M3289,3095.5
		c0.1,5.2,1.5,9.3,4.2,12.1s6.4,4.3,11.1,4.3c5.3,0,10.5-1.9,14.6-5.2v7c-4.2,3-9.6,4.5-16.4,4.5c-6.7,0-11.9-2.1-15.7-6.4
		c-3.8-4.3-5.7-10.3-5.7-18c0-7.3,2.1-13.3,6.2-17.9c3.9-4.5,9.5-7,15.5-6.9c6.2,0,10.9,2,14.3,6c3.4,4,5,9.5,5,16.6v4L3289,3095.5
		L3289,3095.5L3289,3095.5z M3311.3,3079c-2.2-2.5-5.3-3.8-8.6-3.6c-3.4-0.1-6.7,1.3-9.1,3.8c-2.6,2.7-4.2,6.2-4.6,9.9h25.4
		C3314.4,3084.8,3313.4,3081.4,3311.3,3079L3311.3,3079z"/>
</g>
<g class="st3">
	<path d="M272.1,115l6.9-18.1h2.3l6.9,18.1H286l-4.4-11.8c-0.1-0.3-0.3-0.7-0.4-1.2c-0.1-0.4-0.3-0.9-0.5-1.4
		c-0.2-0.5-0.3-0.9-0.5-1.4c-0.1-0.5-0.3-0.8-0.4-1.2h0.5c-0.1,0.4-0.3,0.9-0.4,1.3s-0.3,0.9-0.5,1.3c-0.2,0.4-0.3,0.9-0.5,1.3
		s-0.3,0.9-0.5,1.3l-4.4,11.6H272.1z M275,110l0.8-2h8.6l0.8,2H275z"/>
	<path d="M291.5,115V96.8h1.8l11.9,15.7l-0.4,0.5c-0.1-0.3-0.1-0.7-0.1-1.2c0-0.6-0.1-1.2-0.1-1.9s0-1.4-0.1-2.2c0-0.8,0-1.5,0-2.2
		c0-0.7,0-1.4,0-2v-6.7h2V115h-1.9l-11.8-15.5l0.3-0.5c0.1,0.7,0.1,1.4,0.1,2c0,0.7,0.1,1.3,0.1,1.9c0,0.6,0,1.2,0.1,1.7
		c0,0.5,0,1,0,1.3c0,0.4,0,0.6,0,0.8v8.2H291.5z"/>
	<path d="M317.2,115l6.9-18.1h2.3l6.9,18.1h-2.2l-4.4-11.8c-0.1-0.3-0.3-0.7-0.4-1.2s-0.3-0.9-0.5-1.4s-0.3-0.9-0.5-1.4
		c-0.1-0.5-0.3-0.8-0.4-1.2h0.5c-0.1,0.4-0.3,0.9-0.4,1.3s-0.3,0.9-0.5,1.3c-0.2,0.4-0.3,0.9-0.5,1.3c-0.2,0.4-0.3,0.9-0.5,1.3
		l-4.4,11.6H317.2z M320.1,110l0.8-2h8.6l0.8,2H320.1z"/>
	<path d="M336.7,115V96.8h2V113h8.7v2H336.7z"/>
	<path d="M352.4,115V98.8h-5.2v-2h12.6v2h-5.4V115H352.4z"/>
	<path d="M363.3,115V96.8h11v2h-9V113h8.9v2H363.3z M364.2,106.6v-2h8.6v2H364.2z"/>
	<path d="M378.8,115V96.8h1.8l11.9,15.7l-0.4,0.5c-0.1-0.3-0.1-0.7-0.1-1.2c0-0.6-0.1-1.2-0.1-1.9s0-1.4-0.1-2.2c0-0.8,0-1.5,0-2.2
		c0-0.7,0-1.4,0-2v-6.7h2V115H392l-11.8-15.5l0.3-0.5c0.1,0.7,0.1,1.4,0.1,2c0,0.7,0.1,1.3,0.1,1.9c0,0.6,0,1.2,0.1,1.7s0,1,0,1.3
		c0,0.4,0,0.6,0,0.8v8.2H378.8z"/>
	<path d="M414,115.2c-1.3,0-2.5-0.2-3.6-0.7c-1.1-0.5-2-1.1-2.8-1.9c-0.8-0.8-1.4-1.8-1.9-3c-0.4-1.1-0.7-2.4-0.7-3.7
		c0-1.3,0.2-2.6,0.7-3.7c0.4-1.1,1.1-2.1,1.9-2.9s1.8-1.5,2.8-1.9s2.2-0.7,3.5-0.7c0.8,0,1.7,0.1,2.5,0.4c0.8,0.3,1.6,0.6,2.3,1.1
		c0.7,0.5,1.3,1,1.7,1.6l-1.4,1.5c-0.4-0.5-0.9-1-1.5-1.3s-1.2-0.7-1.8-0.9c-0.6-0.2-1.2-0.3-1.9-0.3c-1,0-1.9,0.2-2.7,0.5
		c-0.8,0.4-1.6,0.9-2.2,1.5c-0.6,0.6-1.1,1.4-1.4,2.3c-0.3,0.9-0.5,1.8-0.5,2.9c0,1.1,0.2,2.1,0.5,3c0.3,0.9,0.8,1.7,1.5,2.3
		c0.6,0.6,1.4,1.2,2.2,1.5c0.9,0.4,1.8,0.5,2.9,0.5c0.6,0,1.2-0.1,1.9-0.3s1.2-0.4,1.7-0.8c0.5-0.3,1-0.7,1.3-1.1l1,1.7
		c-0.4,0.5-0.9,0.9-1.6,1.3c-0.7,0.4-1.4,0.7-2.2,0.9S414.8,115.2,414,115.2z"/>
	<path d="M431.5,115.2c-1.3,0-2.5-0.2-3.5-0.7s-2-1.1-2.8-1.9c-0.8-0.8-1.4-1.8-1.9-2.9s-0.7-2.4-0.7-3.7c0-1.3,0.2-2.6,0.7-3.7
		s1.1-2.1,1.9-3c0.8-0.8,1.7-1.5,2.8-1.9s2.3-0.7,3.5-0.7c1.3,0,2.5,0.2,3.6,0.7c1.1,0.5,2,1.1,2.8,1.9c0.8,0.8,1.4,1.8,1.9,3
		c0.4,1.1,0.7,2.4,0.7,3.7c0,1.3-0.2,2.6-0.7,3.7c-0.4,1.1-1.1,2.1-1.9,3c-0.8,0.8-1.7,1.5-2.8,1.9C434,115,432.8,115.2,431.5,115.2
		z M431.5,113.2c1,0,1.9-0.2,2.7-0.5c0.8-0.4,1.6-0.9,2.2-1.5s1.1-1.4,1.4-2.3c0.3-0.9,0.5-1.9,0.5-2.9c0-1.1-0.2-2.1-0.5-2.9
		c-0.3-0.9-0.8-1.7-1.4-2.3c-0.6-0.7-1.3-1.2-2.2-1.5c-0.8-0.4-1.8-0.5-2.7-0.5c-1,0-1.9,0.2-2.7,0.5c-0.8,0.4-1.6,0.9-2.2,1.5
		c-0.6,0.7-1.1,1.4-1.4,2.3c-0.3,0.9-0.5,1.9-0.5,2.9c0,1.1,0.2,2,0.5,2.9c0.3,0.9,0.8,1.7,1.4,2.3c0.6,0.7,1.3,1.2,2.2,1.5
		C429.6,113.1,430.5,113.2,431.5,113.2z"/>
	<path d="M444.4,115V96.8h2l7,11.3l-0.9,0l7.1-11.3h1.8V115h-2v-8.3c0-1.6,0-3,0.1-4.2c0.1-1.2,0.1-2.5,0.3-3.7l0.4,0.7l-6.5,10.2
		h-1.4l-6.3-10.1l0.3-0.9c0.1,1.2,0.2,2.3,0.3,3.6c0.1,1.2,0.1,2.7,0.1,4.3v8.3H444.4z"/>
	<path d="M466.6,115V96.8h7.2c1,0,1.8,0.2,2.6,0.7s1.4,1.1,1.8,1.9c0.5,0.8,0.7,1.7,0.7,2.8c0,1.1-0.2,2-0.7,2.9
		c-0.4,0.8-1.1,1.5-1.8,2c-0.8,0.5-1.6,0.7-2.6,0.7h-5.2v7.2H466.6z M468.6,105.9h5.3c0.5,0,1-0.2,1.4-0.5c0.4-0.3,0.8-0.8,1-1.3
		c0.3-0.5,0.4-1.2,0.4-1.9c0-0.6-0.1-1.2-0.4-1.7s-0.6-0.9-1-1.2c-0.4-0.3-0.9-0.5-1.4-0.5h-5.3V105.9z"/>
	<path d="M479,115l6.9-18.1h2.3l6.9,18.1H493l-4.4-11.8c-0.1-0.3-0.3-0.7-0.4-1.2c-0.1-0.4-0.3-0.9-0.5-1.4
		c-0.2-0.5-0.3-0.9-0.5-1.4c-0.1-0.5-0.3-0.8-0.4-1.2h0.5c-0.1,0.4-0.3,0.9-0.4,1.3c-0.1,0.4-0.3,0.9-0.5,1.3
		c-0.2,0.4-0.3,0.9-0.5,1.3c-0.2,0.4-0.3,0.9-0.5,1.3l-4.4,11.6H479z M482,110l0.8-2h8.6l0.8,2H482z"/>
	<path d="M498.5,115V96.8h1.8l11.9,15.7l-0.4,0.5c-0.1-0.3-0.1-0.7-0.1-1.2c0-0.6-0.1-1.2-0.1-1.9c0-0.7,0-1.4-0.1-2.2s0-1.5,0-2.2
		c0-0.7,0-1.4,0-2v-6.7h2V115h-1.9l-11.8-15.5l0.3-0.5c0.1,0.7,0.1,1.4,0.1,2c0,0.7,0.1,1.3,0.1,1.9c0,0.6,0,1.2,0.1,1.7
		c0,0.5,0,1,0,1.3c0,0.4,0,0.6,0,0.8v8.2H498.5z"/>
	<path d="M523.8,115v-9l0.2,1.3l-7.3-10.4h2.5l6,8.6l-0.5-0.1l5.5-8.6h2.3l-7,10.7l0.4-1.8v9.3H523.8z"/>
</g>
</svg>
