<svg xmlns="http://www.w3.org/2000/svg" xmlns:xlink="http://www.w3.org/1999/xlink" viewBox="0 0 500 500"><defs><style>.cls-1{fill:url(#linear-gradient);}.cls-2{fill:url(#linear-gradient-2);}.cls-3{fill:url(#New_Gradient_Swatch);}.cls-4{fill:url(#linear-gradient-3);}</style><linearGradient id="linear-gradient" x1="92.08" y1="250.18" x2="173.39" y2="250.18" gradientUnits="userSpaceOnUse"><stop offset="0" stop-color="#ed74e1"/><stop offset="0.14" stop-color="#ed74e1"/><stop offset="0.97" stop-color="#ed74e1"/></linearGradient><linearGradient id="linear-gradient-2" x1="210.91" y1="252.59" x2="292.22" y2="252.59" xlink:href="#linear-gradient"/><linearGradient id="New_Gradient_Swatch" x1="-2594.44" y1="254.93" x2="1190.85" y2="254.93" gradientUnits="userSpaceOnUse"><stop offset="0" stop-color="#22b3f9"/><stop offset="0.2" stop-color="#3f9ce8"/><stop offset="0.4" stop-color="#ae93ff"/><stop offset="0.6" stop-color="#c585b9"/><stop offset="0.8" stop-color="#ed74e1"/><stop offset="1" stop-color="#e2776a"/></linearGradient><linearGradient id="linear-gradient-3" x1="329.74" y1="252.59" x2="411.05" y2="252.59" xlink:href="#linear-gradient"/></defs><g id="Layer_1" data-name="Layer 1"><path class="cls-1" d="M143.49,124.81V105.53a10.75,10.75,0,1,0-21.5,0v19.28a40.66,40.66,0,0,0,0,78.43V405.58h21.5V203.24a40.67,40.67,0,0,0,0-78.43Zm-10.75,58.36A19.15,19.15,0,1,1,151.89,164,19.17,19.17,0,0,1,132.74,183.17Z"/><path class="cls-2" d="M262.31,255.31V105.53a10.75,10.75,0,1,0-21.49,0V255.31a40.66,40.66,0,0,0,0,78.43V410.4h21.49V333.74a40.66,40.66,0,0,0,0-78.43Zm-10.75,58.37a19.16,19.16,0,1,1,19.16-19.15A19.17,19.17,0,0,1,251.56,313.68Z"/><path class="cls-3" d="M414.82,464H87.08A45.2,45.2,0,0,1,41.93,418.8V91.06A45.2,45.2,0,0,1,87.08,45.9H414.82A45.21,45.21,0,0,1,460,91.06V418.8A45.21,45.21,0,0,1,414.82,464ZM87.08,67.4A23.69,23.69,0,0,0,63.42,91.06V418.8a23.69,23.69,0,0,0,23.66,23.66H414.82a23.69,23.69,0,0,0,23.66-23.66V91.06A23.68,23.68,0,0,0,414.82,67.4Z"/><path class="cls-4" d="M381.15,160.64V105.53a10.75,10.75,0,1,0-21.5,0v55.11a40.66,40.66,0,0,0,0,78.43V410.4h21.5V239.07a40.67,40.67,0,0,0,0-78.43ZM370.4,219a19.16,19.16,0,1,1,19.15-19.15A19.17,19.17,0,0,1,370.4,219Z"/></g></svg>