<svg xmlns="http://www.w3.org/2000/svg" xmlns:xlink="http://www.w3.org/1999/xlink" viewBox="0 0 500 500"><defs><style>.cls-1{fill:url(#linear-gradient);}.cls-2{fill:url(#linear-gradient-2);}.cls-3{fill:url(#linear-gradient-3);}.cls-4{fill:url(#linear-gradient-4);}.cls-5{fill:url(#linear-gradient-5);}.cls-6{fill:url(#linear-gradient-6);}</style><linearGradient id="linear-gradient" x1="264.61" y1="377.11" x2="459.44" y2="378.48" gradientUnits="userSpaceOnUse"><stop offset="0.04" stop-color="#be89ce"/><stop offset="1" stop-color="#c585b9"/></linearGradient><linearGradient id="linear-gradient-2" x1="46.3" y1="169.57" x2="243.17" y2="170.95" xlink:href="#linear-gradient"/><linearGradient id="linear-gradient-3" x1="-1424.73" y1="146.81" x2="1941.02" y2="170.51" gradientUnits="userSpaceOnUse"><stop offset="0" stop-color="#c585ba"/><stop offset="0.82" stop-color="#c585ba"/><stop offset="1" stop-color="#c585b9"/></linearGradient><linearGradient id="linear-gradient-4" x1="-1425.37" y1="238.24" x2="1940.37" y2="261.94" xlink:href="#linear-gradient-3"/><linearGradient id="linear-gradient-5" x1="-1424.8" y1="157.42" x2="1940.94" y2="181.12" xlink:href="#linear-gradient-3"/><linearGradient id="linear-gradient-6" x1="-1425.04" y1="191.63" x2="1940.7" y2="215.33" xlink:href="#linear-gradient-3"/></defs><g id="Layer_1" data-name="Layer 1"><path class="cls-1" d="M441.08,362.85,373.87,300.1a57.41,57.41,0,0,0-80.48,2.17l-15.31-14.08a7.68,7.68,0,1,0-10.4,11.31l15.26,14a57.43,57.43,0,0,0,4.4,79.24l67.2,62.75h0a57.4,57.4,0,0,0,81.06-2.78l8.24-8.83A57.42,57.42,0,0,0,441.08,362.85Zm-8.46,70.58-8.24,8.83a42.13,42.13,0,0,1-59.35,2l-67.2-62.75a42.15,42.15,0,0,1-3.57-57.61l48.06,44.19a7.68,7.68,0,1,0,10.39-11.31l-48-44.14a42,42,0,0,1,58.69-1.34l67.2,62.75A42,42,0,0,1,432.62,433.43Z"/><path class="cls-2" d="M240.08,252l-18.8-17.28a57.49,57.49,0,0,0-2.9-80.93L151.18,91a57.49,57.49,0,0,0-81.06,2.78l-8.25,8.82a57.5,57.5,0,0,0,2.78,81.07l67.2,62.75a56.94,56.94,0,0,0,39.08,15.37l2,0a56.87,56.87,0,0,0,37.76-15.91l19,17.43A7.69,7.69,0,0,0,240.08,252ZM210,224.28l-54.29-49.9a7.68,7.68,0,0,0-10.4,11.31l54.11,49.74a42.16,42.16,0,0,1-57-.24l-67.2-62.75a42.14,42.14,0,0,1-2-59.35l8.25-8.83A41.67,41.67,0,0,1,110.6,91c.5,0,1,0,1.49,0a41.62,41.62,0,0,1,28.6,11.24L207.9,165a42.12,42.12,0,0,1,2.07,59.3Z"/><path class="cls-3" d="M280.65,186.41a7.68,7.68,0,0,1-7.68-7.68V138.91a7.68,7.68,0,0,1,15.36,0v39.82A7.68,7.68,0,0,1,280.65,186.41Z"/><path class="cls-4" d="M371.82,258.43H332a7.68,7.68,0,1,1,0-15.36h39.81a7.68,7.68,0,1,1,0,15.36Z"/><path class="cls-5" d="M318.64,193.73a7.69,7.69,0,0,1-6.27-12.12l22.95-32.53a7.69,7.69,0,0,1,12.56,8.86l-23,32.53A7.68,7.68,0,0,1,318.64,193.73Z"/><path class="cls-6" d="M340.77,221a7.68,7.68,0,0,1-3.53-14.5l35.37-18.29a7.68,7.68,0,1,1,7.05,13.64l-35.37,18.29A7.53,7.53,0,0,1,340.77,221Z"/></g></svg>