<svg xmlns="http://www.w3.org/2000/svg" xmlns:xlink="http://www.w3.org/1999/xlink" viewBox="0 0 500 500"><defs><style>.cls-1{fill:url(#New_Gradient_Swatch);}.cls-2{fill:url(#linear-gradient);}.cls-3{fill:url(#New_Gradient_Swatch-2);}.cls-4{fill:url(#New_Gradient_Swatch-3);}.cls-5{fill:url(#New_Gradient_Swatch-4);}.cls-6{fill:url(#New_Gradient_Swatch-5);}.cls-7{fill:url(#New_Gradient_Swatch-6);}</style><linearGradient id="New_Gradient_Swatch" x1="-506.73" y1="388.89" x2="2533.73" y2="388.89" gradientUnits="userSpaceOnUse"><stop offset="0" stop-color="#22b3f9"/><stop offset="0.2" stop-color="#3f9ce8"/><stop offset="0.4" stop-color="#ae93ff"/><stop offset="0.6" stop-color="#c585b9"/><stop offset="0.8" stop-color="#ed74e1"/><stop offset="1" stop-color="#e2776a"/></linearGradient><linearGradient id="linear-gradient" x1="-504.34" y1="413.91" x2="2531.75" y2="413.91" xlink:href="#New_Gradient_Swatch"/><linearGradient id="New_Gradient_Swatch-2" x1="-501.95" y1="438.94" x2="2532.11" y2="438.94" xlink:href="#New_Gradient_Swatch"/><linearGradient id="New_Gradient_Swatch-3" x1="-511.22" y1="463.96" x2="2556.89" y2="463.96" xlink:href="#New_Gradient_Swatch"/><linearGradient id="New_Gradient_Swatch-4" x1="-482.08" y1="201.03" x2="2552.42" y2="201.03" xlink:href="#New_Gradient_Swatch"/><linearGradient id="New_Gradient_Swatch-5" x1="-504.05" y1="167.35" x2="2542.37" y2="169.74" xlink:href="#New_Gradient_Swatch"/><linearGradient id="New_Gradient_Swatch-6" x1="-504.05" y1="167.08" x2="2542.37" y2="169.47" xlink:href="#New_Gradient_Swatch"/></defs><g id="Layer_1" data-name="Layer 1"><path class="cls-1" d="M293.09,395.86h-85.6a7,7,0,0,1,0-13.94h85.6a7,7,0,1,1,0,13.94Z"/><path class="cls-2" d="M293.09,420.88h-85.6a7,7,0,1,1,0-13.94h85.6a7,7,0,0,1,0,13.94Z"/><path class="cls-3" d="M293.09,445.9h-85.6a7,7,0,1,1,0-13.93h85.6a7,7,0,1,1,0,13.93Z"/><path class="cls-4" d="M271.69,470.93h-42.8a7,7,0,1,1,0-13.94h42.8a7,7,0,1,1,0,13.94Z"/><path class="cls-5" d="M321.8,370.11h-143a13.48,13.48,0,0,1-13.38-11.87c-2.3-19.17-8.31-53.75-14.6-64.86-2-3.52-4.06-7.1-6.17-10.73l-.63-1.08c-18-30.95-38.29-66-38.29-105C105.7,96.82,170.56,32,250.28,32s144.6,64.86,144.6,144.59c0,39-20.35,74-38.3,105-2.33,4-4.61,8-6.8,11.82-6,10.54-12.13,44.28-14.6,64.87A13.49,13.49,0,0,1,321.8,370.11ZM179.18,356.17H321.39c.62-4.93,6.81-53,16.26-69.66q3.33-5.86,6.87-11.93c17.07-29.45,36.42-62.81,36.42-98,0-72-58.61-130.65-130.66-130.65S119.64,104.51,119.64,176.55c0,35.24,19.34,68.6,36.41,98l.63,1.08c2.13,3.68,4.23,7.3,6.24,10.86C172.34,303.17,178.56,351.22,179.18,356.17Z"/><path class="cls-6" d="M261.46,244.62H239.12l-4.44-21.71a57.06,57.06,0,0,1-12.25-5L204,230.06l-15.8-15.79,12.14-18.37a57.06,57.06,0,0,1-5.2-12.39l-21.5-4.4V156.78L195,152.41a57.21,57.21,0,0,1,5.19-12.68l-12-18.11L204,105.83l18,11.9a57.31,57.31,0,0,1,12.82-5.33l4.32-21.13h22.34l4.32,21.13a57,57,0,0,1,12.81,5.33l18-11.9,15.8,15.79-12,18.11a56.79,56.79,0,0,1,5.18,12.68L327,156.78v22.33l-21.5,4.4a56.54,56.54,0,0,1-5.19,12.39l12.14,18.37-15.8,15.79-18.46-12.2a57.35,57.35,0,0,1-12.26,5Zm-16.65-7h11L260,217.21l2.15-.52a50,50,0,0,0,14.36-5.9l1.88-1.15,17.36,11.47,7.75-7.75L292,196.06l1.18-1.9a50.41,50.41,0,0,0,6.07-14.46l.52-2.15L320,173.42V162.47l-20.1-4.11-.51-2.18a50.21,50.21,0,0,0-6-14.75l-1.16-1.89,11.24-17-7.74-7.75-17,11.2-1.9-1.18A50,50,0,0,0,262,118.62l-2.16-.52-4.06-19.87h-11l-4.06,19.87-2.17.52a50.21,50.21,0,0,0-14.86,6.18L221.83,126l-17-11.2-7.75,7.75,11.24,17-1.15,1.89a49.78,49.78,0,0,0-6,14.75l-.51,2.18-20.1,4.11v10.95l20.21,4.13.52,2.15a49.74,49.74,0,0,0,6.07,14.46l1.17,1.9-11.43,17.3,7.75,7.75,17.36-11.47,1.89,1.15a50.07,50.07,0,0,0,14.36,5.9l2.15.52Z"/><path class="cls-7" d="M250.29,209.19a41.53,41.53,0,1,1,41.52-41.52A41.57,41.57,0,0,1,250.29,209.19Zm0-76.08a34.56,34.56,0,1,0,34.55,34.56A34.59,34.59,0,0,0,250.29,133.11Z"/></g></svg>