<svg id="Layer_1" data-name="Layer 1" xmlns="http://www.w3.org/2000/svg" xmlns:xlink="http://www.w3.org/1999/xlink" viewBox="0 0 4500 1146.73"><defs><style>.cls-1,.cls-2,.cls-8{fill:none;stroke-miterlimit:10;}.cls-1,.cls-2{stroke:#b2b2b2;}.cls-2{stroke-dasharray:12.06 12.06;}.cls-3{fill:url(#linear-gradient);}.cls-4{fill:#ed74e1;}.cls-5{fill:#3f9feb;}.cls-6{fill:#ae93ff;}.cls-7{fill:#262626;}.cls-8{stroke:#34a1a9;stroke-width:2px;}.cls-9{fill:#34a1a9;}</style><linearGradient id="linear-gradient" x1="412.36" y1="630.1" x2="4872.12" y2="630.1" gradientUnits="userSpaceOnUse"><stop offset="0" stop-color="#22b3f9"/><stop offset="0.07" stop-color="#3f9ce8"/><stop offset="0.15" stop-color="#ae93ff"/><stop offset="0.21" stop-color="#c585b9"/><stop offset="0.29" stop-color="#ed74e1"/><stop offset="0.49" stop-color="#e2776a"/></linearGradient></defs><line class="cls-1" x1="603" y1="107" x2="603" y2="113"/><line class="cls-2" x1="603" y1="125.06" x2="603" y2="1035.97"/><line class="cls-1" x1="603" y1="1042" x2="603" y2="1048"/><line class="cls-1" x1="1765.5" y1="107" x2="1765.5" y2="113"/><line class="cls-2" x1="1765.5" y1="125.06" x2="1765.5" y2="1035.97"/><line class="cls-1" x1="1765.5" y1="1042" x2="1765.5" y2="1048"/><path class="cls-3" d="M1943,672.51h379.06a13.29,13.29,0,0,0,2.7-.28H4872.12V652.51H1943c-96.19,0-174.83-66.3-178.24-148.91v-5.53c0-96.22-90.37-174.5-201.45-174.5s-201.44,78.28-201.44,174.5V673.62c0,85.19-80,154.5-178.36,154.5s-178.35-69.31-178.35-154.5V498.07c0-96.22-90.37-174.5-201.45-174.5S602.3,401.82,602.26,498c0,85.2-80,154.5-178.35,154.5-6.38,0-11.55,4.48-11.55,10s5.17,10,11.55,10c70,0,131.82-31.11,167.93-78.22-24.72,59.65-90.67,102.43-167.93,102.43-6.38,0-11.55,4.48-11.55,10s5.17,10,11.55,10c70.08,0,131.92-31.16,168-78.34C567.26,698.14,501.25,741,423.91,741c-6.38,0-11.55,4.48-11.55,10s5.17,10,11.55,10c111.05,0,201.4-78.25,201.44-174.44,0-85.19,80-154.5,178.35-154.5s178.36,69.31,178.36,154.5V762.12c0,96.22,90.37,174.5,201.44,174.5S1385,858.34,1385,762.12V586.57c0-85.19,80-154.5,178.35-154.5,96.2,0,174.85,66.3,178.24,148.91v5.53c0,96.22,90.37,174.5,201.45,174.5h379.06a12.83,12.83,0,0,0,5.16-1.06H4872.12V740.23H1995.57a12.83,12.83,0,0,0-4.42.78H1943c-77.34,0-143.32-42.85-168-102.59,36.1,47.15,97.91,78.3,168,78.3h379.06a13,13,0,0,0,4-.63h2546V696.37H1995.57a12.66,12.66,0,0,0-3,.35H1943c-77.26,0-143.2-42.78-167.92-102.42C1811.18,641.4,1873,672.51,1943,672.51ZM803.7,343.57c77.26,0,143.21,42.78,167.94,102.42-36.11-47.11-97.91-78.22-167.94-78.22S671.88,398.88,635.77,446C660.49,386.35,726.44,343.57,803.7,343.57Zm0,68.5c-70.08,0-131.92,31.16-168,78.33,24.66-59.75,90.67-102.63,168-102.63s143.36,42.88,168,102.63C935.62,443.23,873.79,412.07,803.7,412.07Zm379.8,436.05c70,0,131.83-31.11,167.92-78.21-24.72,59.64-90.66,102.41-167.92,102.41s-143.19-42.77-167.92-102.41C1051.68,817,1113.48,848.12,1183.5,848.12Zm0,68.5c-77.34,0-143.35-42.88-168-102.63,36.09,47.17,97.93,78.33,168,78.33s131.93-31.16,168-78.33C1326.86,873.74,1260.85,916.62,1183.5,916.62Zm379.8-573c77.27,0,143.22,42.78,168,102.43-36.11-47.11-97.92-78.23-168-78.23S1431.48,398.88,1395.37,446C1420.1,386.35,1486.05,343.57,1563.3,343.57Zm0,68.5c-70.08,0-131.91,31.16-168,78.33,24.66-59.75,90.67-102.63,168-102.63s143.38,42.88,168,102.65C1695.24,443.24,1633.4,412.07,1563.3,412.07Z"/><path class="cls-4" d="M1385.38,237.89V209.45h9.3q4.63,0,7,1.92A6.87,6.87,0,0,1,1404,217a5.76,5.76,0,0,1-1.14,3.53,7.32,7.32,0,0,1-3.08,2.37,6.63,6.63,0,0,1,3.64,2.45,7.06,7.06,0,0,1,1.34,4.31,7.6,7.6,0,0,1-2.48,6c-1.66,1.46-4,2.19-7,2.19Zm3.75-16.31h5.67a5.93,5.93,0,0,0,3.93-1.23,4.12,4.12,0,0,0,1.48-3.35,4.07,4.07,0,0,0-1.37-3.41,6.72,6.72,0,0,0-4.16-1.07h-5.55Zm0,3v10.24h6.19a6,6,0,0,0,4.13-1.36,4.77,4.77,0,0,0,1.52-3.74q0-5.14-5.59-5.14Z"/><path class="cls-4" d="M1418.49,238.28a9.21,9.21,0,0,1-7-2.82,10.47,10.47,0,0,1-2.7-7.55v-.66a12.71,12.71,0,0,1,1.2-5.62,9.4,9.4,0,0,1,3.36-3.87,8.46,8.46,0,0,1,4.68-1.39,7.92,7.92,0,0,1,6.41,2.71q2.28,2.71,2.28,7.78v1.5h-14.32a7.54,7.54,0,0,0,1.83,5,5.74,5.74,0,0,0,4.44,1.92,6.33,6.33,0,0,0,3.25-.78,8.13,8.13,0,0,0,2.32-2.07l2.21,1.72A8.88,8.88,0,0,1,1418.49,238.28Zm-.45-18.94a4.82,4.82,0,0,0-3.67,1.59,7.77,7.77,0,0,0-1.84,4.46h10.59v-.27a6.89,6.89,0,0,0-1.49-4.27A4.52,4.52,0,0,0,1418,219.34Z"/><path class="cls-4" d="M1439.39,235.33a5.22,5.22,0,0,0,3.38-1.17,4.16,4.16,0,0,0,1.6-2.93h3.41a6.53,6.53,0,0,1-1.25,3.46,8.29,8.29,0,0,1-3.07,2.62,8.87,8.87,0,0,1-4.07,1,8.71,8.71,0,0,1-6.87-2.88,11.47,11.47,0,0,1-2.55-7.88v-.61a12.64,12.64,0,0,1,1.14-5.48,8.52,8.52,0,0,1,3.25-3.73,9.19,9.19,0,0,1,5-1.33,8.48,8.48,0,0,1,5.91,2.13,7.61,7.61,0,0,1,2.5,5.52h-3.41a5,5,0,0,0-1.56-3.36,4.82,4.82,0,0,0-3.44-1.32,5.06,5.06,0,0,0-4.27,2,9.29,9.29,0,0,0-1.51,5.73v.69a9.13,9.13,0,0,0,1.5,5.62A5.06,5.06,0,0,0,1439.39,235.33Z"/><path class="cls-4" d="M1450.89,227.13a12.57,12.57,0,0,1,1.22-5.59,9,9,0,0,1,3.4-3.82,9.24,9.24,0,0,1,5-1.35,8.87,8.87,0,0,1,7,3,11.48,11.48,0,0,1,2.67,7.95v.25a12.58,12.58,0,0,1-1.18,5.54,9,9,0,0,1-3.38,3.81,9.3,9.3,0,0,1-5,1.37,8.84,8.84,0,0,1-7-3,11.43,11.43,0,0,1-2.67-7.91Zm3.63.43a9.06,9.06,0,0,0,1.63,5.64,5.23,5.23,0,0,0,4.37,2.13,5.17,5.17,0,0,0,4.37-2.16,9.79,9.79,0,0,0,1.63-6,8.93,8.93,0,0,0-1.66-5.63,5.48,5.48,0,0,0-8.7,0A9.83,9.83,0,0,0,1454.52,227.56Z"/><path class="cls-4" d="M1478.06,216.76l.1,2.34a7.81,7.81,0,0,1,6.27-2.73q4.42,0,6,3.4a7.92,7.92,0,0,1,2.74-2.46,8.08,8.08,0,0,1,4-.94q6.94,0,7.07,7.36v14.16h-3.61V224a4.86,4.86,0,0,0-1-3.39,4.56,4.56,0,0,0-3.48-1.13,4.77,4.77,0,0,0-3.34,1.21,4.86,4.86,0,0,0-1.54,3.23v14h-3.63V224c0-3.07-1.51-4.61-4.51-4.61a4.85,4.85,0,0,0-4.87,3v15.43h-3.61V216.76Z"/><path class="cls-4" d="M1518.49,238.28a9.21,9.21,0,0,1-7-2.82,10.47,10.47,0,0,1-2.7-7.55v-.66a12.71,12.71,0,0,1,1.2-5.62,9.4,9.4,0,0,1,3.36-3.87,8.46,8.46,0,0,1,4.68-1.39,7.92,7.92,0,0,1,6.41,2.71q2.28,2.71,2.28,7.78v1.5h-14.32a7.54,7.54,0,0,0,1.83,5,5.74,5.74,0,0,0,4.44,1.92,6.33,6.33,0,0,0,3.25-.78,8.13,8.13,0,0,0,2.32-2.07l2.21,1.72A8.88,8.88,0,0,1,1518.49,238.28Zm-.45-18.94a4.82,4.82,0,0,0-3.67,1.59,7.77,7.77,0,0,0-1.84,4.46h10.59v-.27a6.89,6.89,0,0,0-1.49-4.27A4.52,4.52,0,0,0,1518,219.34Z"/><path class="cls-4" d="M1539.93,227.15a12.35,12.35,0,0,1,2.31-7.82,7.84,7.84,0,0,1,11.91-.42v-11h3.62v30h-3.32l-.18-2.26a7.37,7.37,0,0,1-6,2.65,7.2,7.2,0,0,1-6-3,12.46,12.46,0,0,1-2.32-7.85Zm3.62.41a9.34,9.34,0,0,0,1.48,5.62,4.8,4.8,0,0,0,4.1,2,5.27,5.27,0,0,0,5-3.09v-9.71a5.31,5.31,0,0,0-5-3,4.82,4.82,0,0,0-4.14,2.06C1544,222.85,1543.55,224.88,1543.55,227.56Z"/><path class="cls-4" d="M1576.42,237.89a7.47,7.47,0,0,1-.51-2.23,8,8,0,0,1-6,2.62,7.43,7.43,0,0,1-5.12-1.77,5.68,5.68,0,0,1-2-4.48,5.94,5.94,0,0,1,2.51-5.12q2.51-1.83,7.06-1.83h3.51v-1.66a4.09,4.09,0,0,0-1.13-3,4.56,4.56,0,0,0-3.34-1.12,5.26,5.26,0,0,0-3.24,1,2.88,2.88,0,0,0-1.31,2.37h-3.63a5,5,0,0,1,1.12-3.06,7.66,7.66,0,0,1,3-2.33,10.19,10.19,0,0,1,4.23-.86,8.4,8.4,0,0,1,5.73,1.82,6.59,6.59,0,0,1,2.14,5V233a11.8,11.8,0,0,0,.75,4.63v.31Zm-6-2.75a6.39,6.39,0,0,0,3.22-.88,5.29,5.29,0,0,0,2.21-2.29v-4.33H1573q-6.64,0-6.64,3.88a3.3,3.3,0,0,0,1.13,2.66A4.36,4.36,0,0,0,1570.42,235.14Z"/><path class="cls-4" d="M1590,211.64v5.12h4v2.79h-4v13.12a2.94,2.94,0,0,0,.53,1.91,2.23,2.23,0,0,0,1.8.64,8.55,8.55,0,0,0,1.71-.24v2.91a10.45,10.45,0,0,1-2.77.39,4.52,4.52,0,0,1-3.65-1.46,6.31,6.31,0,0,1-1.23-4.16V219.55h-3.85v-2.79h3.85v-5.12Z"/><path class="cls-4" d="M1611.24,237.89a7.47,7.47,0,0,1-.51-2.23,8,8,0,0,1-6,2.62,7.48,7.48,0,0,1-5.13-1.77,5.71,5.71,0,0,1-2-4.48,6,6,0,0,1,2.51-5.12,11.81,11.81,0,0,1,7.06-1.83h3.52v-1.66a4.06,4.06,0,0,0-1.14-3,4.54,4.54,0,0,0-3.34-1.12,5.26,5.26,0,0,0-3.24,1,2.9,2.9,0,0,0-1.31,2.37H1598a5,5,0,0,1,1.12-3.06,7.7,7.7,0,0,1,3-2.33,10.13,10.13,0,0,1,4.23-.86,8.39,8.39,0,0,1,5.72,1.82,6.6,6.6,0,0,1,2.15,5V233a12,12,0,0,0,.74,4.63v.31Zm-6-2.75a6.42,6.42,0,0,0,3.22-.88,5.4,5.4,0,0,0,2.21-2.29v-4.33h-2.84c-4.42,0-6.64,1.29-6.64,3.88a3.28,3.28,0,0,0,1.14,2.66A4.33,4.33,0,0,0,1605.25,235.14Z"/><path class="cls-4" d="M1627.47,227.29h-9.53v-2.95h9.53Z"/><path class="cls-4" d="M1630.11,227.15a12.41,12.41,0,0,1,2.3-7.82,7.85,7.85,0,0,1,11.92-.42v-11h3.61v30h-3.32l-.17-2.26a7.37,7.37,0,0,1-6,2.65,7.22,7.22,0,0,1-6-3,12.52,12.52,0,0,1-2.31-7.85Zm3.61.41a9.34,9.34,0,0,0,1.49,5.62,4.78,4.78,0,0,0,4.1,2,5.28,5.28,0,0,0,5-3.09v-9.71a5.31,5.31,0,0,0-5-3,4.82,4.82,0,0,0-4.14,2.06A10.29,10.29,0,0,0,1633.72,227.56Z"/><path class="cls-4" d="M1663.76,220a11,11,0,0,0-1.78-.14,4.76,4.76,0,0,0-4.82,3v15h-3.61V216.76h3.51l.06,2.44a5.63,5.63,0,0,1,5-2.83,3.72,3.72,0,0,1,1.6.27Z"/><path class="cls-4" d="M1667.1,211.15a2.14,2.14,0,0,1,.54-1.48,2,2,0,0,1,1.59-.61,2.06,2.06,0,0,1,1.6.61,2.11,2.11,0,0,1,.55,1.48,2,2,0,0,1-.55,1.47,2.08,2.08,0,0,1-1.6.58,2.06,2.06,0,0,1-1.59-.58A2.08,2.08,0,0,1,1667.1,211.15Zm3.91,26.74h-3.62V216.76H1671Z"/><path class="cls-4" d="M1683.76,233l5.24-16.23h3.69l-7.58,21.13h-2.75l-7.66-21.13h3.69Z"/><path class="cls-4" d="M1704.93,238.28a9.24,9.24,0,0,1-7-2.82,10.46,10.46,0,0,1-2.69-7.55v-.66a12.71,12.71,0,0,1,1.2-5.62,9.4,9.4,0,0,1,3.36-3.87,8.4,8.4,0,0,1,4.67-1.39,7.91,7.91,0,0,1,6.41,2.71c1.52,1.81,2.29,4.4,2.29,7.78v1.5h-14.32a7.49,7.49,0,0,0,1.83,5,5.73,5.73,0,0,0,4.44,1.92,6.29,6.29,0,0,0,3.24-.78,8.16,8.16,0,0,0,2.33-2.07l2.2,1.72A8.87,8.87,0,0,1,1704.93,238.28Zm-.45-18.94a4.83,4.83,0,0,0-3.67,1.59,7.7,7.7,0,0,0-1.83,4.46h10.58v-.27a6.89,6.89,0,0,0-1.48-4.27A4.55,4.55,0,0,0,1704.48,219.34Z"/><path class="cls-4" d="M1720.77,216.76l.12,2.65a7.69,7.69,0,0,1,6.33-3q6.69,0,6.76,7.56v14h-3.62v-14a4.86,4.86,0,0,0-1-3.38,4.2,4.2,0,0,0-3.2-1.1,5.23,5.23,0,0,0-3.08.94,6.36,6.36,0,0,0-2.07,2.46v15.06h-3.61V216.76Z"/><path class="cls-4" d="M1739.31,243.56l-2-1.41a9.43,9.43,0,0,0,1.91-5.27v-3.27h3.54v2.84a8.94,8.94,0,0,1-1,3.94A9.29,9.29,0,0,1,1739.31,243.56Z"/><path class="cls-4" d="M1385.42,285.89a7.47,7.47,0,0,1-.51-2.23,8,8,0,0,1-6,2.62,7.48,7.48,0,0,1-5.13-1.77,5.71,5.71,0,0,1-2-4.48,6,6,0,0,1,2.51-5.12,11.81,11.81,0,0,1,7.06-1.83h3.52v-1.66a4.06,4.06,0,0,0-1.14-3,4.54,4.54,0,0,0-3.34-1.12,5.26,5.26,0,0,0-3.24,1,2.9,2.9,0,0,0-1.31,2.37h-3.63a5,5,0,0,1,1.12-3.06,7.7,7.7,0,0,1,3-2.33,10.13,10.13,0,0,1,4.23-.86,8.39,8.39,0,0,1,5.72,1.82,6.6,6.6,0,0,1,2.15,5V281a12,12,0,0,0,.74,4.63v.31Zm-6-2.75a6.42,6.42,0,0,0,3.22-.88,5.4,5.4,0,0,0,2.21-2.29v-4.33H1382c-4.42,0-6.64,1.29-6.64,3.88a3.28,3.28,0,0,0,1.14,2.66A4.33,4.33,0,0,0,1379.43,283.14Z"/><path class="cls-4" d="M1393.27,275.15a12.37,12.37,0,0,1,2.29-7.86,7.88,7.88,0,0,1,12.09-.19l.17-2.34h3.3v20.62a8.61,8.61,0,0,1-2.43,6.47,9,9,0,0,1-6.53,2.36,10.88,10.88,0,0,1-4.47-1,7.79,7.79,0,0,1-3.34-2.68l1.87-2.17a7.06,7.06,0,0,0,5.69,2.87,5.55,5.55,0,0,0,4.11-1.48,5.68,5.68,0,0,0,1.47-4.18v-1.82a7.41,7.41,0,0,1-5.92,2.5,7.19,7.19,0,0,1-6-3Q1393.28,280.31,1393.27,275.15Zm3.64.41a9.44,9.44,0,0,0,1.46,5.61,4.74,4.74,0,0,0,4.1,2.05,5.3,5.3,0,0,0,5-3.11v-9.65a5.34,5.34,0,0,0-5-3,4.8,4.8,0,0,0-4.12,2.06C1397.4,270.85,1396.91,272.88,1396.91,275.56Z"/><path class="cls-4" d="M1416.59,259.15a2.14,2.14,0,0,1,.54-1.48,2.39,2.39,0,0,1,3.19,0,2.11,2.11,0,0,1,.55,1.48,2.24,2.24,0,0,1-3.74,1.47A2.08,2.08,0,0,1,1416.59,259.15Zm3.91,26.74h-3.61V264.76h3.61Z"/><path class="cls-4" d="M1430.21,285.89h-3.62v-30h3.62Z"/><path class="cls-4" d="M1444.76,286.28a9.21,9.21,0,0,1-7-2.82,10.47,10.47,0,0,1-2.7-7.55v-.66a12.71,12.71,0,0,1,1.2-5.62,9.4,9.4,0,0,1,3.36-3.87,8.46,8.46,0,0,1,4.68-1.39,7.89,7.89,0,0,1,6.4,2.71q2.3,2.71,2.29,7.78v1.5h-14.32a7.54,7.54,0,0,0,1.83,5.05,5.74,5.74,0,0,0,4.44,1.92,6.33,6.33,0,0,0,3.25-.78,8.13,8.13,0,0,0,2.32-2.07l2.21,1.72A8.88,8.88,0,0,1,1444.76,286.28Zm-.45-18.94a4.82,4.82,0,0,0-3.67,1.59,7.71,7.71,0,0,0-1.84,4.46h10.59v-.27a6.89,6.89,0,0,0-1.49-4.27A4.52,4.52,0,0,0,1444.31,267.34Z"/><path class="cls-4" d="M1457.06,291.56l-2-1.41a9.45,9.45,0,0,0,1.92-5.27v-3.27h3.53v2.84a8.81,8.81,0,0,1-1,3.94A9.17,9.17,0,0,1,1457.06,291.56Z"/><path class="cls-4" d="M1474.17,278.25a6.65,6.65,0,0,1,1.14-3.76,17.43,17.43,0,0,1,4.37-4,18.75,18.75,0,0,1-2.54-3.71,7.22,7.22,0,0,1,1.27-7.87,7.23,7.23,0,0,1,5.2-1.84,7,7,0,0,1,4.84,1.71,5.52,5.52,0,0,1,1.91,4.31,6,6,0,0,1-.87,3.17,11.38,11.38,0,0,1-3,3.06l-2.09,1.54,6.33,7.56a12,12,0,0,0,1.32-5.64h3.26a13.63,13.63,0,0,1-2.4,8.26l4.07,4.86h-4.34l-1.9-2.24a10,10,0,0,1-3.38,2,12,12,0,0,1-4,.67,9.78,9.78,0,0,1-6.68-2.2A7.39,7.39,0,0,1,1474.17,278.25Zm9.2,5.08a7.62,7.62,0,0,0,5.25-2.18l-6.93-8.31-.64.47q-3.27,2.4-3.27,4.94a4.81,4.81,0,0,0,1.5,3.7A5.8,5.8,0,0,0,1483.37,283.33Zm-3.26-19.47q0,1.88,2.3,4.69l2.31-1.62a6.12,6.12,0,0,0,1.81-1.79,4,4,0,0,0,.49-2.06,2.8,2.8,0,0,0-1-2.18,3.57,3.57,0,0,0-2.46-.87,3.16,3.16,0,0,0-2.54,1.09A4,4,0,0,0,1480.11,263.86Z"/><path class="cls-4" d="M1518.18,283.33a5.2,5.2,0,0,0,3.37-1.17,4.13,4.13,0,0,0,1.61-2.93h3.41a6.53,6.53,0,0,1-1.25,3.46,8.29,8.29,0,0,1-3.07,2.62,8.87,8.87,0,0,1-4.07,1,8.71,8.71,0,0,1-6.87-2.88,11.47,11.47,0,0,1-2.55-7.88v-.61a12.78,12.78,0,0,1,1.13-5.48,8.61,8.61,0,0,1,3.26-3.73,9.19,9.19,0,0,1,5-1.33,8.45,8.45,0,0,1,5.9,2.13,7.58,7.58,0,0,1,2.51,5.52h-3.41a5,5,0,0,0-1.56-3.36,4.82,4.82,0,0,0-3.44-1.32,5.06,5.06,0,0,0-4.27,2,9.29,9.29,0,0,0-1.52,5.73v.69a9.12,9.12,0,0,0,1.51,5.62A5.06,5.06,0,0,0,1518.18,283.33Z"/><path class="cls-4" d="M1534.56,285.89H1531v-30h3.61Z"/><path class="cls-4" d="M1539.39,275.13a12.44,12.44,0,0,1,1.22-5.59,9,9,0,0,1,3.4-3.82,9.21,9.21,0,0,1,5-1.35,8.9,8.9,0,0,1,7,3,11.47,11.47,0,0,1,2.66,7.95v.25a12.58,12.58,0,0,1-1.18,5.54,9,9,0,0,1-3.38,3.81,9.25,9.25,0,0,1-5,1.37,8.88,8.88,0,0,1-7-3,11.47,11.47,0,0,1-2.66-7.91Zm3.63.43a9,9,0,0,0,1.63,5.64,5.52,5.52,0,0,0,8.74,0,9.86,9.86,0,0,0,1.62-6,9,9,0,0,0-1.65-5.63,5.24,5.24,0,0,0-4.38-2.16,5.18,5.18,0,0,0-4.32,2.13A9.83,9.83,0,0,0,1543,275.56Z"/><path class="cls-4" d="M1576.2,283.8a7.65,7.65,0,0,1-6.19,2.48,6.58,6.58,0,0,1-5.15-2,8.53,8.53,0,0,1-1.78-5.81V264.76h3.61v13.65c0,3.2,1.3,4.81,3.91,4.81,2.76,0,4.59-1,5.51-3.09V264.76h3.61v21.13h-3.44Z"/><path class="cls-4" d="M1584.33,275.15a12.41,12.41,0,0,1,2.3-7.82,7.85,7.85,0,0,1,11.92-.42v-11h3.61v30h-3.32l-.18-2.26a7.34,7.34,0,0,1-6,2.65,7.22,7.22,0,0,1-6-3,12.52,12.52,0,0,1-2.31-7.85Zm3.61.41a9.34,9.34,0,0,0,1.49,5.62,4.77,4.77,0,0,0,4.1,2,5.28,5.28,0,0,0,5-3.09v-9.71a5.31,5.31,0,0,0-5-3,4.81,4.81,0,0,0-4.14,2.06A10.29,10.29,0,0,0,1587.94,275.56Z"/><path class="cls-4" d="M1615.28,275.29h-9.53v-3h9.53Z"/><path class="cls-4" d="M1627.57,286.28a9.23,9.23,0,0,1-7-2.82,10.47,10.47,0,0,1-2.7-7.55v-.66a12.71,12.71,0,0,1,1.2-5.62,9.4,9.4,0,0,1,3.36-3.87,8.46,8.46,0,0,1,4.68-1.39,7.92,7.92,0,0,1,6.41,2.71q2.28,2.71,2.28,7.78v1.5H1621.5a7.53,7.53,0,0,0,1.82,5.05,5.76,5.76,0,0,0,4.45,1.92,6.32,6.32,0,0,0,3.24-.78,8.13,8.13,0,0,0,2.32-2.07l2.21,1.72A8.88,8.88,0,0,1,1627.57,286.28Zm-.45-18.94a4.82,4.82,0,0,0-3.67,1.59,7.77,7.77,0,0,0-1.84,4.46h10.59v-.27a6.89,6.89,0,0,0-1.49-4.27A4.52,4.52,0,0,0,1627.12,267.34Z"/><path class="cls-4" d="M1643.41,264.76l.12,2.65a7.69,7.69,0,0,1,6.33-3q6.69,0,6.75,7.56v14H1653v-14a4.81,4.81,0,0,0-1-3.38,4.17,4.17,0,0,0-3.19-1.1,5.23,5.23,0,0,0-3.08.94,6.36,6.36,0,0,0-2.07,2.46v15.06H1640V264.76Z"/><path class="cls-4" d="M1675.11,285.89a7.47,7.47,0,0,1-.51-2.23,8,8,0,0,1-6,2.62,7.44,7.44,0,0,1-5.13-1.77,5.68,5.68,0,0,1-2-4.48,5.94,5.94,0,0,1,2.51-5.12q2.51-1.83,7.06-1.83h3.51v-1.66a4.09,4.09,0,0,0-1.13-3,4.56,4.56,0,0,0-3.34-1.12,5.26,5.26,0,0,0-3.24,1,2.9,2.9,0,0,0-1.31,2.37h-3.63a5,5,0,0,1,1.12-3.06,7.63,7.63,0,0,1,3-2.33,10.11,10.11,0,0,1,4.22-.86,8.4,8.4,0,0,1,5.73,1.82,6.63,6.63,0,0,1,2.15,5V281a11.82,11.82,0,0,0,.74,4.63v.31Zm-6-2.75a6.43,6.43,0,0,0,3.23-.88,5.32,5.32,0,0,0,2.2-2.29v-4.33h-2.83q-6.64,0-6.64,3.88a3.3,3.3,0,0,0,1.13,2.66A4.36,4.36,0,0,0,1669.11,283.14Z"/><path class="cls-4" d="M1701.71,275.56a12.52,12.52,0,0,1-2.23,7.78,7.1,7.1,0,0,1-6,2.94,7.35,7.35,0,0,1-6.19-2.83l-.18,2.44h-3.32v-30h3.61v11.19a7.33,7.33,0,0,1,6-2.71,7.15,7.15,0,0,1,6,2.91c1.47,1.94,2.2,4.59,2.2,8Zm-3.61-.41a9.76,9.76,0,0,0-1.43-5.7,4.73,4.73,0,0,0-4.1-2,5.32,5.32,0,0,0-5.14,3.32v9.15a5.47,5.47,0,0,0,5.18,3.32,4.67,4.67,0,0,0,4-2Q1698.1,279.19,1698.1,275.15Z"/><path class="cls-4" d="M1710.19,285.89h-3.62v-30h3.62Z"/><path class="cls-4" d="M1724.74,286.28a9.21,9.21,0,0,1-7-2.82,10.47,10.47,0,0,1-2.7-7.55v-.66a12.71,12.71,0,0,1,1.2-5.62,9.4,9.4,0,0,1,3.36-3.87,8.46,8.46,0,0,1,4.68-1.39,7.92,7.92,0,0,1,6.41,2.71q2.28,2.71,2.28,7.78v1.5h-14.32a7.54,7.54,0,0,0,1.83,5.05,5.74,5.74,0,0,0,4.44,1.92,6.33,6.33,0,0,0,3.25-.78,8.13,8.13,0,0,0,2.32-2.07l2.21,1.72A8.88,8.88,0,0,1,1724.74,286.28Zm-.45-18.94a4.82,4.82,0,0,0-3.67,1.59,7.77,7.77,0,0,0-1.84,4.46h10.59v-.27a6.89,6.89,0,0,0-1.49-4.27A4.52,4.52,0,0,0,1724.29,267.34Z"/><path class="cls-4" d="M1736.28,275.15a12.35,12.35,0,0,1,2.31-7.82,7.25,7.25,0,0,1,6-3,7.32,7.32,0,0,1,5.88,2.54v-11h3.61v30h-3.32l-.17-2.26a7.37,7.37,0,0,1-6,2.65,7.19,7.19,0,0,1-6-3,12.46,12.46,0,0,1-2.32-7.85Zm3.61.41a9.34,9.34,0,0,0,1.49,5.62,4.8,4.8,0,0,0,4.1,2,5.27,5.27,0,0,0,5-3.09v-9.71a5.31,5.31,0,0,0-5-3,4.82,4.82,0,0,0-4.14,2.06A10.29,10.29,0,0,0,1739.89,275.56Z"/><path class="cls-5" d="M639.32,217.22h-6.68v11.5h-3.77V200.28h9.42q4.8,0,7.39,2.19a7.89,7.89,0,0,1,2.59,6.37,7.65,7.65,0,0,1-1.44,4.63,8.56,8.56,0,0,1-4,2.94l6.68,12.08v.23h-4Zm-6.68-3.07h5.76a6.48,6.48,0,0,0,4.45-1.45,4.89,4.89,0,0,0,1.65-3.87,5.18,5.18,0,0,0-1.57-4.05,6.66,6.66,0,0,0-4.54-1.43h-5.75Z"/><path class="cls-5" d="M661.73,229.11a9.25,9.25,0,0,1-7-2.82,10.5,10.5,0,0,1-2.69-7.55v-.67a12.7,12.7,0,0,1,1.2-5.61,9.34,9.34,0,0,1,3.36-3.87,8.46,8.46,0,0,1,4.68-1.39,7.9,7.9,0,0,1,6.4,2.71q2.3,2.72,2.29,7.77v1.51H655.65a7.5,7.5,0,0,0,1.83,5.05,5.73,5.73,0,0,0,4.44,1.92,6.27,6.27,0,0,0,3.24-.78,8.16,8.16,0,0,0,2.33-2.07l2.2,1.72A8.86,8.86,0,0,1,661.73,229.11Zm-.45-19a4.85,4.85,0,0,0-3.68,1.6,7.7,7.7,0,0,0-1.83,4.46h10.58V216a6.89,6.89,0,0,0-1.48-4.27A4.54,4.54,0,0,0,661.28,210.16Z"/><path class="cls-5" d="M681.67,218.11h-9.53v-3h9.53Z"/><path class="cls-5" d="M685.2,202a2.14,2.14,0,0,1,.54-1.48,2,2,0,0,1,1.59-.61,2,2,0,0,1,1.6.61,2.11,2.11,0,0,1,.55,1.48,2,2,0,0,1-.55,1.47,2.08,2.08,0,0,1-1.6.58,2.06,2.06,0,0,1-1.59-.58A2.08,2.08,0,0,1,685.2,202Zm3.91,26.74h-3.62V207.59h3.62Z"/><path class="cls-5" d="M698.29,207.59l.1,2.34a7.78,7.78,0,0,1,6.26-2.73q4.44,0,6,3.39a7.82,7.82,0,0,1,6.74-3.39q6.95,0,7.07,7.36v14.16h-3.61V214.77a4.82,4.82,0,0,0-1-3.38,4.56,4.56,0,0,0-3.48-1.13,4.8,4.8,0,0,0-3.34,1.2,4.88,4.88,0,0,0-1.54,3.24v14h-3.63V214.87c0-3.07-1.51-4.61-4.51-4.61a4.85,4.85,0,0,0-4.87,3v15.43h-3.61V207.59Z"/><path class="cls-5" d="M743,228.72a8,8,0,0,1-.5-2.23,8.06,8.06,0,0,1-6,2.62,7.48,7.48,0,0,1-5.13-1.77,5.73,5.73,0,0,1-2-4.48,6,6,0,0,1,2.51-5.13,11.91,11.91,0,0,1,7.06-1.82h3.52v-1.66a4.07,4.07,0,0,0-1.13-3,4.56,4.56,0,0,0-3.34-1.12,5.31,5.31,0,0,0-3.25,1,2.89,2.89,0,0,0-1.31,2.37h-3.63a5,5,0,0,1,1.13-3.06,7.59,7.59,0,0,1,3-2.33,10.13,10.13,0,0,1,4.23-.86,8.32,8.32,0,0,1,5.72,1.82,6.6,6.6,0,0,1,2.15,5v9.73a12,12,0,0,0,.74,4.63v.31ZM737,226a6.39,6.39,0,0,0,3.22-.88,5.34,5.34,0,0,0,2.21-2.29v-4.33H739.6q-6.65,0-6.64,3.88a3.27,3.27,0,0,0,1.13,2.66A4.33,4.33,0,0,0,737,226Z"/><path class="cls-5" d="M750.85,218a12.41,12.41,0,0,1,2.28-7.86,7.88,7.88,0,0,1,12.09-.19l.18-2.34h3.3v20.62a8.61,8.61,0,0,1-2.43,6.47,9,9,0,0,1-6.54,2.36,10.9,10.9,0,0,1-4.47-1,7.7,7.7,0,0,1-3.34-2.67l1.88-2.17a7.06,7.06,0,0,0,5.68,2.87,5.52,5.52,0,0,0,4.11-1.48,5.7,5.7,0,0,0,1.48-4.18v-1.82a7.43,7.43,0,0,1-5.92,2.5,7.23,7.23,0,0,1-6-3C751.61,224.13,750.85,221.41,750.85,218Zm3.63.41a9.51,9.51,0,0,0,1.46,5.61,4.78,4.78,0,0,0,4.11,2,5.3,5.3,0,0,0,5-3.1v-9.65a5.36,5.36,0,0,0-5-3,4.83,4.83,0,0,0-4.12,2.05Q754.48,214.37,754.48,218.39Z"/><path class="cls-5" d="M774.17,202a2.18,2.18,0,0,1,.53-1.48,2,2,0,0,1,1.6-.61,2,2,0,0,1,1.6.61,2.14,2.14,0,0,1,.54,1.48,2.24,2.24,0,0,1-3.74,1.47A2.12,2.12,0,0,1,774.17,202Zm3.9,26.74h-3.61V207.59h3.61Z"/><path class="cls-5" d="M787.27,207.59l.12,2.65a7.69,7.69,0,0,1,6.33-3q6.69,0,6.76,7.55v14h-3.62v-14a4.86,4.86,0,0,0-1-3.38,4.2,4.2,0,0,0-3.2-1.1,5.16,5.16,0,0,0-3.08.94,6.29,6.29,0,0,0-2.07,2.46v15.06h-3.62V207.59Z"/><path class="cls-5" d="M814.69,229.11a9.24,9.24,0,0,1-7-2.82,10.46,10.46,0,0,1-2.69-7.55v-.67a12.7,12.7,0,0,1,1.2-5.61,9.34,9.34,0,0,1,3.36-3.87,8.45,8.45,0,0,1,4.67-1.39,7.91,7.91,0,0,1,6.41,2.71c1.52,1.81,2.29,4.4,2.29,7.77v1.51H808.62a7.5,7.5,0,0,0,1.83,5.05,5.73,5.73,0,0,0,4.44,1.92,6.29,6.29,0,0,0,3.24-.78,8.16,8.16,0,0,0,2.33-2.07l2.2,1.72A8.87,8.87,0,0,1,814.69,229.11Zm-.45-19a4.84,4.84,0,0,0-3.67,1.6,7.7,7.7,0,0,0-1.83,4.46h10.58V216a6.89,6.89,0,0,0-1.48-4.27A4.56,4.56,0,0,0,814.24,210.16Z"/><path class="cls-5" d="M849.32,223.11a2.67,2.67,0,0,0-1.1-2.27,10.65,10.65,0,0,0-3.85-1.4A18.37,18.37,0,0,1,840,218a6.22,6.22,0,0,1-2.39-2,4.68,4.68,0,0,1-.77-2.69,5.49,5.49,0,0,1,2.2-4.4,8.61,8.61,0,0,1,5.61-1.79,8.8,8.8,0,0,1,5.83,1.85,5.91,5.91,0,0,1,2.24,4.75h-3.63a3.27,3.27,0,0,0-1.26-2.56,4.71,4.71,0,0,0-3.18-1.08,5,5,0,0,0-3.08.86,2.73,2.73,0,0,0-1.11,2.25,2.18,2.18,0,0,0,1,2,12.45,12.45,0,0,0,3.74,1.27,19.91,19.91,0,0,1,4.39,1.45,6.52,6.52,0,0,1,2.49,2,5,5,0,0,1,.81,2.88,5.41,5.41,0,0,1-2.27,4.54,9.5,9.5,0,0,1-5.88,1.71,10.62,10.62,0,0,1-4.49-.9,7.32,7.32,0,0,1-3.06-2.51,6.06,6.06,0,0,1-1.1-3.48h3.61a3.75,3.75,0,0,0,1.46,2.88,5.63,5.63,0,0,0,3.58,1.06,5.83,5.83,0,0,0,3.29-.83A2.54,2.54,0,0,0,849.32,223.11Z"/><path class="cls-5" d="M866.41,229.11a9.24,9.24,0,0,1-7-2.82,10.46,10.46,0,0,1-2.69-7.55v-.67a12.7,12.7,0,0,1,1.2-5.61,9.34,9.34,0,0,1,3.36-3.87A8.4,8.4,0,0,1,866,207.2a7.91,7.91,0,0,1,6.41,2.71q2.28,2.72,2.28,7.77v1.51H860.34a7.55,7.55,0,0,0,1.82,5.05,5.76,5.76,0,0,0,4.45,1.92,6.32,6.32,0,0,0,3.24-.78,8,8,0,0,0,2.32-2.07l2.21,1.72A8.88,8.88,0,0,1,866.41,229.11Zm-.45-19a4.83,4.83,0,0,0-3.67,1.6,7.7,7.7,0,0,0-1.83,4.46H871V216a6.89,6.89,0,0,0-1.48-4.27A4.56,4.56,0,0,0,866,210.16Z"/><path class="cls-5" d="M889.05,210.83a11,11,0,0,0-1.78-.14,4.75,4.75,0,0,0-4.82,3v15h-3.62V207.59h3.52l.06,2.44a5.61,5.61,0,0,1,5-2.83,3.75,3.75,0,0,1,1.6.27Z"/><path class="cls-5" d="M899.69,223.82l5.24-16.23h3.69L901,228.72h-2.75l-7.66-21.13h3.69Z"/><path class="cls-5" d="M912.12,202a2.14,2.14,0,0,1,.53-1.48,2,2,0,0,1,1.59-.61,2,2,0,0,1,1.61.61,2.14,2.14,0,0,1,.54,1.48,1.94,1.94,0,0,1-2.15,2.05,2.06,2.06,0,0,1-1.59-.58A2.08,2.08,0,0,1,912.12,202Zm3.9,26.74h-3.61V207.59H916Z"/><path class="cls-5" d="M930.28,226.16a5.2,5.2,0,0,0,3.38-1.17,4.12,4.12,0,0,0,1.6-2.93h3.42a6.61,6.61,0,0,1-1.25,3.46,8.29,8.29,0,0,1-3.08,2.61,8.88,8.88,0,0,1-4.07,1,8.71,8.71,0,0,1-6.87-2.88,11.52,11.52,0,0,1-2.54-7.88v-.61a12.71,12.71,0,0,1,1.13-5.49,8.64,8.64,0,0,1,3.25-3.73,9.27,9.27,0,0,1,5-1.32,8.52,8.52,0,0,1,5.91,2.12,7.64,7.64,0,0,1,2.51,5.53h-3.42a5,5,0,0,0-1.55-3.37,4.83,4.83,0,0,0-3.45-1.32,5.07,5.07,0,0,0-4.27,2,9.29,9.29,0,0,0-1.51,5.73v.68a9.16,9.16,0,0,0,1.5,5.63A5.11,5.11,0,0,0,930.28,226.16Z"/><path class="cls-5" d="M951.51,229.11a9.24,9.24,0,0,1-7-2.82,10.47,10.47,0,0,1-2.7-7.55v-.67a12.7,12.7,0,0,1,1.2-5.61,9.34,9.34,0,0,1,3.36-3.87,8.46,8.46,0,0,1,4.68-1.39,7.92,7.92,0,0,1,6.41,2.71q2.28,2.72,2.28,7.77v1.51H945.44a7.55,7.55,0,0,0,1.82,5.05,5.76,5.76,0,0,0,4.45,1.92,6.32,6.32,0,0,0,3.24-.78,8.13,8.13,0,0,0,2.32-2.07l2.21,1.72A8.88,8.88,0,0,1,951.51,229.11Zm-.45-19a4.83,4.83,0,0,0-3.67,1.6,7.77,7.77,0,0,0-1.84,4.46h10.59V216a6.89,6.89,0,0,0-1.49-4.27A4.52,4.52,0,0,0,951.06,210.16Z"/><path class="cls-5" d="M976.24,223.11a2.65,2.65,0,0,0-1.11-2.27,10.59,10.59,0,0,0-3.84-1.4,18.47,18.47,0,0,1-4.36-1.4,6.18,6.18,0,0,1-2.38-2,4.6,4.6,0,0,1-.77-2.69A5.5,5.5,0,0,1,966,209a8.64,8.64,0,0,1,5.62-1.79,8.82,8.82,0,0,1,5.83,1.85,5.9,5.9,0,0,1,2.23,4.75H976a3.27,3.27,0,0,0-1.26-2.56,4.71,4.71,0,0,0-3.17-1.08,5,5,0,0,0-3.09.86,2.73,2.73,0,0,0-1.11,2.25,2.18,2.18,0,0,0,1,2,12.45,12.45,0,0,0,3.74,1.27,19.73,19.73,0,0,1,4.39,1.45,6.37,6.37,0,0,1,2.49,2,5,5,0,0,1,.81,2.88,5.41,5.41,0,0,1-2.27,4.54,9.49,9.49,0,0,1-5.87,1.71,10.66,10.66,0,0,1-4.5-.9,7.23,7.23,0,0,1-3.05-2.51,6,6,0,0,1-1.11-3.48h3.62a3.74,3.74,0,0,0,1.45,2.88,5.66,5.66,0,0,0,3.59,1.06,5.87,5.87,0,0,0,3.29-.83A2.56,2.56,0,0,0,976.24,223.11Z"/><path class="cls-5" d="M703.33,276.72a7.55,7.55,0,0,1-.51-2.23,8.06,8.06,0,0,1-6,2.62,7.43,7.43,0,0,1-5.12-1.77,5.71,5.71,0,0,1-2-4.48,6,6,0,0,1,2.51-5.13,11.91,11.91,0,0,1,7.06-1.82h3.52v-1.66a4.07,4.07,0,0,0-1.13-3,4.56,4.56,0,0,0-3.34-1.12,5.26,5.26,0,0,0-3.24,1,2.86,2.86,0,0,0-1.31,2.37H690.1a5,5,0,0,1,1.13-3.06,7.66,7.66,0,0,1,3-2.33,10.19,10.19,0,0,1,4.23-.86,8.37,8.37,0,0,1,5.73,1.82,6.59,6.59,0,0,1,2.14,5v9.73a11.8,11.8,0,0,0,.75,4.63v.31Zm-6-2.75a6.39,6.39,0,0,0,3.22-.88,5.34,5.34,0,0,0,2.21-2.29v-4.33h-2.83q-6.64,0-6.64,3.88a3.27,3.27,0,0,0,1.13,2.66A4.36,4.36,0,0,0,697.33,274Z"/><path class="cls-5" d="M722.25,258.83a10.86,10.86,0,0,0-1.77-.14,4.77,4.77,0,0,0-4.83,3v15H712V255.59h3.51l.06,2.44a5.63,5.63,0,0,1,5-2.83,3.72,3.72,0,0,1,1.6.27Z"/><path class="cls-5" d="M724.23,266a12.44,12.44,0,0,1,1.22-5.59,9.11,9.11,0,0,1,3.39-3.83,9.35,9.35,0,0,1,5-1.34,8.92,8.92,0,0,1,7,3,11.56,11.56,0,0,1,2.66,7.95v.26a12.54,12.54,0,0,1-1.18,5.53,8.92,8.92,0,0,1-3.38,3.82,9.37,9.37,0,0,1-5,1.37,8.9,8.9,0,0,1-7-3,11.42,11.42,0,0,1-2.66-7.91Zm3.63.43a9,9,0,0,0,1.63,5.64,5.52,5.52,0,0,0,8.74,0,9.88,9.88,0,0,0,1.62-6,9,9,0,0,0-1.65-5.64,5.24,5.24,0,0,0-4.38-2.16,5.18,5.18,0,0,0-4.32,2.13A9.78,9.78,0,0,0,727.86,266.39Z"/><path class="cls-5" d="M761,274.63a7.68,7.68,0,0,1-6.19,2.48,6.58,6.58,0,0,1-5.15-2,8.53,8.53,0,0,1-1.78-5.81V255.59h3.61v13.65q0,4.8,3.91,4.8c2.76,0,4.59-1,5.5-3.08V255.59h3.62v21.13h-3.44Z"/><path class="cls-5" d="M773.46,255.59l.12,2.65a7.7,7.7,0,0,1,6.33-3q6.69,0,6.76,7.55v14h-3.62v-14a4.86,4.86,0,0,0-1-3.38,4.2,4.2,0,0,0-3.19-1.1,5.17,5.17,0,0,0-3.09.94,6.29,6.29,0,0,0-2.07,2.46v15.06h-3.61V255.59Z"/><path class="cls-5" d="M791.24,266a12.4,12.4,0,0,1,2.3-7.83,7.85,7.85,0,0,1,11.92-.41v-11h3.61v30h-3.32l-.18-2.27a7.34,7.34,0,0,1-6,2.66,7.21,7.21,0,0,1-6-3,12.52,12.52,0,0,1-2.31-7.85Zm3.61.41a9.36,9.36,0,0,0,1.48,5.62,4.79,4.79,0,0,0,4.11,2,5.27,5.27,0,0,0,5-3.08v-9.71a5.33,5.33,0,0,0-5-3,4.84,4.84,0,0,0-4.15,2.05Q794.85,262.37,794.85,266.39Z"/><path class="cls-5" d="M837.62,274.63a7.68,7.68,0,0,1-6.19,2.48,6.54,6.54,0,0,1-5.14-2,8.48,8.48,0,0,1-1.79-5.81V255.59h3.61v13.65q0,4.8,3.91,4.8c2.76,0,4.59-1,5.51-3.08V255.59h3.61v21.13H837.7Z"/><path class="cls-5" d="M858.93,271.11a2.67,2.67,0,0,0-1.1-2.27,10.65,10.65,0,0,0-3.85-1.4,18.37,18.37,0,0,1-4.35-1.4,6.22,6.22,0,0,1-2.39-2,4.68,4.68,0,0,1-.77-2.69,5.49,5.49,0,0,1,2.2-4.4,8.59,8.59,0,0,1,5.61-1.79,8.8,8.8,0,0,1,5.83,1.85,5.91,5.91,0,0,1,2.24,4.75h-3.63a3.27,3.27,0,0,0-1.26-2.56,4.71,4.71,0,0,0-3.18-1.08,5,5,0,0,0-3.08.86,2.74,2.74,0,0,0-1.12,2.25,2.19,2.19,0,0,0,1,2,12.45,12.45,0,0,0,3.74,1.27,19.81,19.81,0,0,1,4.38,1.45,6.48,6.48,0,0,1,2.5,2,5,5,0,0,1,.81,2.88,5.41,5.41,0,0,1-2.27,4.54,9.5,9.5,0,0,1-5.88,1.71,10.62,10.62,0,0,1-4.49-.9,7.32,7.32,0,0,1-3.06-2.51,6.06,6.06,0,0,1-1.1-3.48h3.61a3.75,3.75,0,0,0,1.46,2.88,5.63,5.63,0,0,0,3.58,1.06,5.85,5.85,0,0,0,3.29-.83A2.54,2.54,0,0,0,858.93,271.11Z"/><path class="cls-5" d="M876,277.11a9.24,9.24,0,0,1-7-2.82,10.47,10.47,0,0,1-2.7-7.55v-.67a12.7,12.7,0,0,1,1.21-5.61,9.34,9.34,0,0,1,3.36-3.87,8.4,8.4,0,0,1,4.67-1.39,7.91,7.91,0,0,1,6.41,2.71q2.28,2.71,2.28,7.77v1.51H870a7.55,7.55,0,0,0,1.82,5.05,5.76,5.76,0,0,0,4.45,1.92,6.32,6.32,0,0,0,3.24-.78,8.13,8.13,0,0,0,2.32-2.07L884,273A8.88,8.88,0,0,1,876,277.11Zm-.45-18.95a4.83,4.83,0,0,0-3.67,1.6,7.7,7.7,0,0,0-1.83,4.46h10.58V264a6.89,6.89,0,0,0-1.48-4.27A4.56,4.56,0,0,0,875.57,258.16Z"/><path class="cls-5" d="M898.66,258.83a11,11,0,0,0-1.78-.14,4.75,4.75,0,0,0-4.82,3v15h-3.62V255.59H892L892,258a5.61,5.61,0,0,1,5-2.83,3.75,3.75,0,0,1,1.6.27Z"/><path class="cls-5" d="M914.28,271.11a2.64,2.64,0,0,0-1.1-2.27,10.65,10.65,0,0,0-3.85-1.4A18.37,18.37,0,0,1,905,266a6.22,6.22,0,0,1-2.39-2,4.68,4.68,0,0,1-.77-2.69A5.51,5.51,0,0,1,904,257a8.64,8.64,0,0,1,5.62-1.79,8.84,8.84,0,0,1,5.83,1.85,5.9,5.9,0,0,1,2.23,4.75h-3.63a3.27,3.27,0,0,0-1.26-2.56,4.71,4.71,0,0,0-3.17-1.08,5,5,0,0,0-3.09.86,2.73,2.73,0,0,0-1.11,2.25,2.18,2.18,0,0,0,1,2,12.45,12.45,0,0,0,3.74,1.27A19.91,19.91,0,0,1,914.6,266a6.37,6.37,0,0,1,2.49,2,5,5,0,0,1,.81,2.88,5.41,5.41,0,0,1-2.27,4.54,9.5,9.5,0,0,1-5.88,1.71,10.62,10.62,0,0,1-4.49-.9,7.32,7.32,0,0,1-3.06-2.51,6.06,6.06,0,0,1-1.1-3.48h3.61a3.75,3.75,0,0,0,1.46,2.88,5.63,5.63,0,0,0,3.58,1.06,5.83,5.83,0,0,0,3.29-.83A2.54,2.54,0,0,0,914.28,271.11Z"/><path class="cls-6" d="M1048.72,999.92V971.48h9.3c3.08,0,5.41.64,7,1.91a6.91,6.91,0,0,1,2.34,5.67,5.73,5.73,0,0,1-1.14,3.52,7.26,7.26,0,0,1-3.08,2.38,6.58,6.58,0,0,1,3.64,2.45,7,7,0,0,1,1.34,4.3,7.62,7.62,0,0,1-2.48,6c-1.66,1.46-4,2.19-7,2.19Zm3.75-16.31h5.67a5.93,5.93,0,0,0,3.93-1.23,4.16,4.16,0,0,0,1.48-3.35,4.07,4.07,0,0,0-1.37-3.42,6.72,6.72,0,0,0-4.16-1.06h-5.55Zm0,3v10.23h6.19a5.93,5.93,0,0,0,4.13-1.36,4.76,4.76,0,0,0,1.52-3.74q0-5.13-5.59-5.13Z"/><path class="cls-6" d="M1083.27,982a10.89,10.89,0,0,0-1.78-.14,4.77,4.77,0,0,0-4.82,3v15h-3.61V978.79h3.51l.06,2.44a5.64,5.64,0,0,1,5-2.84,3.7,3.7,0,0,1,1.6.28Z"/><path class="cls-6" d="M1095.36,1000.31a9.24,9.24,0,0,1-7-2.82,10.48,10.48,0,0,1-2.7-7.55v-.67a12.56,12.56,0,0,1,1.21-5.61,9.34,9.34,0,0,1,3.36-3.87,8.41,8.41,0,0,1,4.67-1.4,7.92,7.92,0,0,1,6.41,2.72q2.28,2.71,2.28,7.77v1.51h-14.31a7.55,7.55,0,0,0,1.82,5.05,5.76,5.76,0,0,0,4.45,1.92,6.32,6.32,0,0,0,3.24-.78,8,8,0,0,0,2.32-2.07l2.21,1.72A8.88,8.88,0,0,1,1095.36,1000.31Zm-.45-18.95a4.82,4.82,0,0,0-3.67,1.59,7.8,7.8,0,0,0-1.84,4.47H1100v-.28a6.88,6.88,0,0,0-1.48-4.26A4.56,4.56,0,0,0,1094.91,981.36Z"/><path class="cls-6" d="M1120.83,999.92a7.55,7.55,0,0,1-.51-2.23,8,8,0,0,1-6,2.62,7.46,7.46,0,0,1-5.13-1.77,5.73,5.73,0,0,1-2-4.48,6,6,0,0,1,2.51-5.13c1.67-1.22,4-1.82,7.06-1.82h3.51v-1.66a4,4,0,0,0-1.13-3,4.54,4.54,0,0,0-3.34-1.13,5.26,5.26,0,0,0-3.24,1,2.88,2.88,0,0,0-1.31,2.36h-3.63a5,5,0,0,1,1.12-3,7.72,7.72,0,0,1,3-2.34,10.28,10.28,0,0,1,4.23-.86,8.34,8.34,0,0,1,5.72,1.83,6.58,6.58,0,0,1,2.15,5V995a12,12,0,0,0,.74,4.63v.31Zm-6-2.76a6.42,6.42,0,0,0,3.23-.87,5.32,5.32,0,0,0,2.2-2.29v-4.34h-2.83c-4.42,0-6.64,1.3-6.64,3.89a3.32,3.32,0,0,0,1.13,2.66A4.36,4.36,0,0,0,1114.83,997.16Z"/><path class="cls-6" d="M1135.44,990.13l-2.27,2.37v7.42h-3.61v-30h3.61v18.14l1.94-2.32,6.58-7h4.39l-8.22,8.82,9.18,12.31h-4.24Z"/><path class="cls-6" d="M1161.49,999.92V981.58h-3.34v-2.79h3.34v-2.17a7.21,7.21,0,0,1,1.82-5.26,6.9,6.9,0,0,1,5.14-1.85,9.55,9.55,0,0,1,2.48.33l-.2,2.91a10.09,10.09,0,0,0-2-.18,3.53,3.53,0,0,0-2.71,1,4.17,4.17,0,0,0-1,2.95v2.24h4.51v2.79h-4.51v18.34Z"/><path class="cls-6" d="M1183.82,982a11,11,0,0,0-1.78-.14,4.75,4.75,0,0,0-4.82,3v15h-3.62V978.79h3.52l.06,2.44a5.62,5.62,0,0,1,5-2.84,3.73,3.73,0,0,1,1.6.28Z"/><path class="cls-6" d="M1195.91,1000.31a9.21,9.21,0,0,1-7-2.82,10.48,10.48,0,0,1-2.7-7.55v-.67a12.7,12.7,0,0,1,1.2-5.61,9.34,9.34,0,0,1,3.36-3.87,8.47,8.47,0,0,1,4.68-1.4,7.93,7.93,0,0,1,6.41,2.72q2.28,2.71,2.28,7.77v1.51h-14.32a7.6,7.6,0,0,0,1.83,5.05,5.76,5.76,0,0,0,4.44,1.92,6.33,6.33,0,0,0,3.25-.78,8.13,8.13,0,0,0,2.32-2.07l2.21,1.72A8.88,8.88,0,0,1,1195.91,1000.31Zm-.45-18.95a4.82,4.82,0,0,0-3.67,1.59,7.8,7.8,0,0,0-1.84,4.47h10.59v-.28a6.88,6.88,0,0,0-1.49-4.26A4.52,4.52,0,0,0,1195.46,981.36Z"/><path class="cls-6" d="M1217.1,1000.31a9.23,9.23,0,0,1-7-2.82,10.48,10.48,0,0,1-2.7-7.55v-.67a12.7,12.7,0,0,1,1.2-5.61,9.34,9.34,0,0,1,3.36-3.87,8.47,8.47,0,0,1,4.68-1.4,7.93,7.93,0,0,1,6.41,2.72q2.28,2.71,2.28,7.77v1.51H1211a7.55,7.55,0,0,0,1.82,5.05,5.76,5.76,0,0,0,4.45,1.92,6.32,6.32,0,0,0,3.24-.78,8.13,8.13,0,0,0,2.32-2.07l2.21,1.72A8.88,8.88,0,0,1,1217.1,1000.31Zm-.45-18.95A4.82,4.82,0,0,0,1213,983a7.8,7.8,0,0,0-1.84,4.47h10.59v-.28a6.82,6.82,0,0,0-1.49-4.26A4.52,4.52,0,0,0,1216.65,981.36Z"/><path class="cls-6" d="M1241.2,999.92V981.58h-3.34v-2.79h3.34v-2.17a7.21,7.21,0,0,1,1.82-5.26,6.87,6.87,0,0,1,5.13-1.85,9.57,9.57,0,0,1,2.49.33l-.2,2.91a10.09,10.09,0,0,0-2-.18,3.56,3.56,0,0,0-2.72,1,4.17,4.17,0,0,0-1,2.95v2.24h4.51v2.79h-4.51v18.34Z"/><path class="cls-6" d="M1263.53,982a11,11,0,0,0-1.78-.14,4.77,4.77,0,0,0-4.83,3v15h-3.61V978.79h3.52l.06,2.44a5.61,5.61,0,0,1,5-2.84,3.75,3.75,0,0,1,1.61.28Z"/><path class="cls-6" d="M1265.5,989.16a12.54,12.54,0,0,1,1.22-5.59,9.13,9.13,0,0,1,3.4-3.83,9.24,9.24,0,0,1,5-1.35,8.92,8.92,0,0,1,7,3,11.48,11.48,0,0,1,2.67,8v.26a12.68,12.68,0,0,1-1.18,5.53,9,9,0,0,1-3.38,3.82,9.39,9.39,0,0,1-5,1.37,8.91,8.91,0,0,1-7-3,11.47,11.47,0,0,1-2.66-7.91Zm3.63.43a9.08,9.08,0,0,0,1.63,5.64,5.52,5.52,0,0,0,8.74,0,9.88,9.88,0,0,0,1.62-6,9,9,0,0,0-1.65-5.64,5.48,5.48,0,0,0-8.7,0A9.85,9.85,0,0,0,1269.13,989.59Z"/><path class="cls-6" d="M1292.67,978.79l.09,2.34a7.82,7.82,0,0,1,6.27-2.74c3,0,5,1.14,6,3.4a7.86,7.86,0,0,1,6.74-3.4q6.95,0,7.07,7.37v14.16h-3.62V986a4.86,4.86,0,0,0-1-3.39,4.6,4.6,0,0,0-3.48-1.12,4.8,4.8,0,0,0-3.34,1.2,4.88,4.88,0,0,0-1.54,3.23v14h-3.63V986.07c0-3.07-1.51-4.61-4.51-4.61a4.85,4.85,0,0,0-4.87,3v15.43h-3.61V978.79Z"/><path class="cls-6" d="M1028,1047.92h-3.61v-30H1028Z"/><path class="cls-6" d="M1042.54,1048.31a9.23,9.23,0,0,1-7-2.82,10.48,10.48,0,0,1-2.7-7.55v-.67a12.7,12.7,0,0,1,1.2-5.61,9.34,9.34,0,0,1,3.36-3.87,8.47,8.47,0,0,1,4.68-1.4,7.93,7.93,0,0,1,6.41,2.72q2.28,2.72,2.28,7.77v1.51h-14.31a7.55,7.55,0,0,0,1.82,5,5.76,5.76,0,0,0,4.45,1.92,6.32,6.32,0,0,0,3.24-.78,8.13,8.13,0,0,0,2.32-2.07l2.21,1.72A8.88,8.88,0,0,1,1042.54,1048.31Zm-.45-19a4.82,4.82,0,0,0-3.67,1.59,7.8,7.8,0,0,0-1.84,4.47h10.59v-.28a6.82,6.82,0,0,0-1.49-4.26A4.52,4.52,0,0,0,1042.09,1029.36Z"/><path class="cls-6" d="M1054.1,1037.18a12.4,12.4,0,0,1,2.29-7.87,7.87,7.87,0,0,1,12.09-.18l.17-2.34h3.3v20.62a8.59,8.59,0,0,1-2.43,6.46,9,9,0,0,1-6.53,2.37,10.9,10.9,0,0,1-4.47-1,7.7,7.7,0,0,1-3.34-2.67l1.87-2.17a7.09,7.09,0,0,0,5.69,2.87,5.56,5.56,0,0,0,4.11-1.49,5.68,5.68,0,0,0,1.47-4.18v-1.81a7.41,7.41,0,0,1-5.92,2.5,7.22,7.22,0,0,1-6-3C1054.87,1043.33,1054.1,1040.61,1054.1,1037.18Zm3.64.41a9.44,9.44,0,0,0,1.46,5.61,4.76,4.76,0,0,0,4.1,2,5.29,5.29,0,0,0,5-3.1v-9.65a5.36,5.36,0,0,0-5-3,4.79,4.79,0,0,0-4.12,2C1058.23,1032.88,1057.74,1034.9,1057.74,1037.59Z"/><path class="cls-6" d="M1090.45,1047.92a7.55,7.55,0,0,1-.51-2.23,8,8,0,0,1-6,2.62,7.44,7.44,0,0,1-5.13-1.77,5.73,5.73,0,0,1-2-4.48,6,6,0,0,1,2.51-5.13c1.67-1.22,4-1.82,7.06-1.82h3.51v-1.66a4,4,0,0,0-1.13-3,4.54,4.54,0,0,0-3.34-1.13,5.26,5.26,0,0,0-3.24,1,2.88,2.88,0,0,0-1.31,2.36h-3.63a5,5,0,0,1,1.12-3.05,7.65,7.65,0,0,1,3.05-2.34,10.28,10.28,0,0,1,4.23-.86,8.34,8.34,0,0,1,5.72,1.83,6.58,6.58,0,0,1,2.15,5V1043a11.82,11.82,0,0,0,.74,4.63v.31Zm-6-2.76a6.42,6.42,0,0,0,3.23-.87,5.32,5.32,0,0,0,2.2-2.29v-4.34h-2.83q-6.65,0-6.64,3.89a3.32,3.32,0,0,0,1.13,2.66A4.36,4.36,0,0,0,1084.45,1045.16Z"/><path class="cls-6" d="M1107.64,1045.36a5.22,5.22,0,0,0,3.38-1.17,4.16,4.16,0,0,0,1.6-2.93H1116a6.63,6.63,0,0,1-1.25,3.45,8.22,8.22,0,0,1-3.08,2.62,8.88,8.88,0,0,1-4.07,1,8.71,8.71,0,0,1-6.87-2.88,11.47,11.47,0,0,1-2.55-7.88v-.61a12.65,12.65,0,0,1,1.14-5.49,8.64,8.64,0,0,1,3.25-3.73,9.27,9.27,0,0,1,5-1.33,8.48,8.48,0,0,1,5.91,2.13,7.64,7.64,0,0,1,2.51,5.53h-3.42a5,5,0,0,0-1.55-3.37,4.84,4.84,0,0,0-3.45-1.32,5,5,0,0,0-4.27,2,9.29,9.29,0,0,0-1.51,5.73v.68a9.16,9.16,0,0,0,1.5,5.63A5.1,5.1,0,0,0,1107.64,1045.36Z"/><path class="cls-6" d="M1127,1042.62l4.92-15.83h3.87l-8.49,24.39c-1.32,3.52-3.41,5.27-6.27,5.27l-.69-.06-1.35-.25v-2.93l1,.08a4.82,4.82,0,0,0,2.86-.74,5.33,5.33,0,0,0,1.69-2.72l.8-2.15-7.54-20.89h4Z"/><path class="cls-6" d="M1157.4,1045.36a5.2,5.2,0,0,0,3.38-1.17,4.09,4.09,0,0,0,1.6-2.93h3.42a6.46,6.46,0,0,1-1.25,3.45,8.19,8.19,0,0,1-3.07,2.62,8.92,8.92,0,0,1-4.08,1,8.71,8.71,0,0,1-6.86-2.88,11.47,11.47,0,0,1-2.55-7.88v-.61a12.79,12.79,0,0,1,1.13-5.49,8.71,8.71,0,0,1,3.25-3.73,9.32,9.32,0,0,1,5-1.33,8.48,8.48,0,0,1,5.91,2.13,7.61,7.61,0,0,1,2.51,5.53h-3.42a5,5,0,0,0-1.55-3.37,4.83,4.83,0,0,0-3.45-1.32,5,5,0,0,0-4.26,2,9.29,9.29,0,0,0-1.52,5.73v.68a9.09,9.09,0,0,0,1.51,5.63A5.08,5.08,0,0,0,1157.4,1045.36Z"/><path class="cls-6" d="M1168.91,1037.16a12.41,12.41,0,0,1,1.22-5.59,9.07,9.07,0,0,1,3.4-3.83,9.24,9.24,0,0,1,5-1.35,8.93,8.93,0,0,1,7,3,11.48,11.48,0,0,1,2.67,7.95v.26a12.54,12.54,0,0,1-1.19,5.53,8.85,8.85,0,0,1-3.38,3.82,9.33,9.33,0,0,1-5,1.37,8.91,8.91,0,0,1-7-3,11.47,11.47,0,0,1-2.66-7.91Zm3.63.43a9,9,0,0,0,1.63,5.64,5.52,5.52,0,0,0,8.74,0,9.88,9.88,0,0,0,1.62-6,9,9,0,0,0-1.65-5.64,5.24,5.24,0,0,0-4.38-2.16,5.18,5.18,0,0,0-4.32,2.13A9.85,9.85,0,0,0,1172.54,1037.59Z"/><path class="cls-6" d="M1196.09,1026.79l.12,2.65a7.72,7.72,0,0,1,6.33-3q6.7,0,6.76,7.56v14h-3.62v-14a4.88,4.88,0,0,0-1-3.38,4.22,4.22,0,0,0-3.19-1.09,5.19,5.19,0,0,0-3.09.94,6.3,6.3,0,0,0-2.07,2.46v15.06h-3.61v-21.13Z"/><path class="cls-6" d="M1227.05,1042.31a2.67,2.67,0,0,0-1.1-2.27,10.65,10.65,0,0,0-3.85-1.4,18.13,18.13,0,0,1-4.36-1.41,6.15,6.15,0,0,1-2.38-2,4.68,4.68,0,0,1-.77-2.69,5.47,5.47,0,0,1,2.2-4.4,8.54,8.54,0,0,1,5.61-1.8,8.81,8.81,0,0,1,5.83,1.86,5.91,5.91,0,0,1,2.24,4.75h-3.63a3.25,3.25,0,0,0-1.26-2.56,4.71,4.71,0,0,0-3.18-1.08,5,5,0,0,0-3.08.86,2.7,2.7,0,0,0-1.12,2.25,2.19,2.19,0,0,0,1,2,12.74,12.74,0,0,0,3.74,1.27,19.3,19.3,0,0,1,4.38,1.45,6.37,6.37,0,0,1,2.49,2,4.91,4.91,0,0,1,.81,2.88,5.4,5.4,0,0,1-2.26,4.54,9.5,9.5,0,0,1-5.88,1.71,10.62,10.62,0,0,1-4.49-.9,7.4,7.4,0,0,1-3.06-2.51,6.09,6.09,0,0,1-1.1-3.49h3.61a3.73,3.73,0,0,0,1.46,2.88,5.63,5.63,0,0,0,3.58,1.07,5.83,5.83,0,0,0,3.29-.83A2.54,2.54,0,0,0,1227.05,1042.31Z"/><path class="cls-6" d="M1240.27,1021.67v5.12h4v2.79h-4v13.12a3,3,0,0,0,.53,1.91,2.23,2.23,0,0,0,1.8.63,9.16,9.16,0,0,0,1.72-.23v2.91a10.53,10.53,0,0,1-2.78.39,4.49,4.49,0,0,1-3.65-1.47,6.28,6.28,0,0,1-1.23-4.16v-13.1h-3.85v-2.79h3.85v-5.12Z"/><path class="cls-6" d="M1258.65,1030a10.86,10.86,0,0,0-1.77-.14,4.77,4.77,0,0,0-4.83,3v15h-3.61v-21.13H1252l.06,2.44a5.64,5.64,0,0,1,5-2.84,3.7,3.7,0,0,1,1.6.28Z"/><path class="cls-6" d="M1274.24,1047.92a7.55,7.55,0,0,1-.51-2.23,8,8,0,0,1-6,2.62,7.44,7.44,0,0,1-5.13-1.77,5.7,5.7,0,0,1-2-4.48,6,6,0,0,1,2.51-5.13c1.67-1.22,4-1.82,7.06-1.82h3.51v-1.66a4,4,0,0,0-1.13-3,4.56,4.56,0,0,0-3.34-1.13,5.26,5.26,0,0,0-3.24,1,2.88,2.88,0,0,0-1.31,2.36H1261a5,5,0,0,1,1.12-3.05,7.65,7.65,0,0,1,3-2.34,10.27,10.27,0,0,1,4.22-.86,8.35,8.35,0,0,1,5.73,1.83,6.62,6.62,0,0,1,2.15,5V1043a11.82,11.82,0,0,0,.74,4.63v.31Zm-6-2.76a6.42,6.42,0,0,0,3.23-.87,5.32,5.32,0,0,0,2.2-2.29v-4.34h-2.83q-6.64,0-6.64,3.89a3.32,3.32,0,0,0,1.13,2.66A4.36,4.36,0,0,0,1268.24,1045.16Z"/><path class="cls-6" d="M1283,1021.18a2.13,2.13,0,0,1,.54-1.48,2,2,0,0,1,1.59-.61,2,2,0,0,1,1.6.61,2.09,2.09,0,0,1,.55,1.48,2,2,0,0,1-.55,1.46,2,2,0,0,1-1.6.59,2,2,0,0,1-1.59-.59A2.06,2.06,0,0,1,1283,1021.18Zm3.91,26.74h-3.62v-21.13h3.62Z"/><path class="cls-6" d="M1296.07,1026.79l.12,2.65a7.72,7.72,0,0,1,6.33-3q6.7,0,6.76,7.56v14h-3.62v-14a4.88,4.88,0,0,0-1-3.38,4.22,4.22,0,0,0-3.19-1.09,5.19,5.19,0,0,0-3.09.94,6.39,6.39,0,0,0-2.07,2.46v15.06h-3.61v-21.13Z"/><path class="cls-6" d="M1319.63,1021.67v5.12h3.94v2.79h-3.94v13.12a3,3,0,0,0,.53,1.91,2.22,2.22,0,0,0,1.79.63,9.16,9.16,0,0,0,1.72-.23v2.91a10.45,10.45,0,0,1-2.77.39,4.48,4.48,0,0,1-3.65-1.47,6.28,6.28,0,0,1-1.23-4.16v-13.1h-3.85v-2.79H1316v-5.12Z"/><path class="cls-6" d="M1340.1,1042.31A2.65,2.65,0,0,0,1339,1040a10.51,10.51,0,0,0-3.84-1.4,18.13,18.13,0,0,1-4.36-1.41,6.08,6.08,0,0,1-2.38-2,4.68,4.68,0,0,1-.77-2.69,5.49,5.49,0,0,1,2.19-4.4,8.59,8.59,0,0,1,5.62-1.8,8.81,8.81,0,0,1,5.83,1.86,5.91,5.91,0,0,1,2.24,4.75h-3.64a3.25,3.25,0,0,0-1.26-2.56,4.69,4.69,0,0,0-3.17-1.08,5,5,0,0,0-3.09.86,2.72,2.72,0,0,0-1.11,2.25,2.19,2.19,0,0,0,1,2,12.63,12.63,0,0,0,3.74,1.27,19.3,19.3,0,0,1,4.38,1.45,6.37,6.37,0,0,1,2.49,2,5,5,0,0,1,.81,2.88,5.4,5.4,0,0,1-2.26,4.54,9.5,9.5,0,0,1-5.88,1.71,10.66,10.66,0,0,1-4.5-.9,7.3,7.3,0,0,1-3-2.51,6,6,0,0,1-1.11-3.49h3.62a3.72,3.72,0,0,0,1.45,2.88,5.66,5.66,0,0,0,3.59,1.07,5.87,5.87,0,0,0,3.29-.83A2.54,2.54,0,0,0,1340.1,1042.31Z"/><path class="cls-7" d="M1070.06,96.84l.65,4.5,1-4,6.75-23.81h3.79l6.59,23.81.94,4.12.72-4.59,5.3-23.34h4.52L1092,107.6h-4.1l-7-24.87-.54-2.6-.54,2.6-7.29,24.87h-4.1l-8.25-34.12h4.5Z"/><path class="cls-7" d="M1108.94,85.31a9.21,9.21,0,0,1,7.5-3.54q8,0,8.11,9.07V107.6h-4.34V90.82a5.83,5.83,0,0,0-1.25-4.06,5,5,0,0,0-3.83-1.31,6.24,6.24,0,0,0-3.7,1.13,7.62,7.62,0,0,0-2.49,3V107.6h-4.33v-36h4.33Z"/><path class="cls-7" d="M1146.7,107.6a9.22,9.22,0,0,1-.61-2.67,9.69,9.69,0,0,1-7.22,3.14,9,9,0,0,1-6.15-2.12,6.88,6.88,0,0,1-2.4-5.38,7.16,7.16,0,0,1,3-6.15q3-2.19,8.47-2.19H1146v-2a4.86,4.86,0,0,0-1.36-3.62,5.46,5.46,0,0,0-4-1.35,6.29,6.29,0,0,0-3.89,1.18,3.43,3.43,0,0,0-1.57,2.83h-4.36a6,6,0,0,1,1.35-3.67,9.23,9.23,0,0,1,3.66-2.8,12.42,12.42,0,0,1,5.07-1,10,10,0,0,1,6.87,2.19,8,8,0,0,1,2.58,6v11.67a14.19,14.19,0,0,0,.89,5.56v.37Zm-7.2-3.3a7.67,7.67,0,0,0,3.87-1.06,6.4,6.4,0,0,0,2.65-2.74V95.3h-3.4q-8,0-8,4.66a4,4,0,0,0,1.36,3.19A5.26,5.26,0,0,0,1139.5,104.3Z"/><path class="cls-7" d="M1163,76.1v6.14h4.73v3.35H1163v15.75a3.53,3.53,0,0,0,.63,2.29,2.65,2.65,0,0,0,2.15.76,10.4,10.4,0,0,0,2.07-.28v3.49a12.68,12.68,0,0,1-3.33.47,5.39,5.39,0,0,1-4.38-1.76,7.5,7.5,0,0,1-1.48-5V85.59h-4.62V82.24h4.62V76.1Z"/><path class="cls-7" d="M1207.17,101.62,1212,82.24h4.34L1209,107.6h-3.52l-6.16-19.22-6,19.22h-3.52l-7.36-25.36h4.31l5,19,5.9-19h3.49Z"/><path class="cls-7" d="M1231.31,108.07a11.06,11.06,0,0,1-8.39-3.39,12.57,12.57,0,0,1-3.24-9.06v-.79a15.07,15.07,0,0,1,1.45-6.74,11.14,11.14,0,0,1,4-4.64,10.08,10.08,0,0,1,5.61-1.68,9.51,9.51,0,0,1,7.69,3.26q2.74,3.25,2.74,9.33v1.8H1224a9,9,0,0,0,2.19,6.06,6.89,6.89,0,0,0,5.33,2.31,7.5,7.5,0,0,0,3.89-.94,9.52,9.52,0,0,0,2.79-2.48l2.65,2.06Q1237.69,108.07,1231.31,108.07Zm-.54-22.74a5.81,5.81,0,0,0-4.41,1.91,9.35,9.35,0,0,0-2.2,5.36h12.7v-.33a8.24,8.24,0,0,0-1.78-5.12A5.45,5.45,0,0,0,1230.77,85.33Z"/><path class="cls-7" d="M1257,94.71q0-5.83,2.77-9.39a9.41,9.41,0,0,1,14.3-.5V71.6h4.33v36h-4l-.21-2.72a8.83,8.83,0,0,1-7.25,3.19,8.65,8.65,0,0,1-7.18-3.61A15,15,0,0,1,1257,95Zm4.34.49a11.21,11.21,0,0,0,1.78,6.75,5.75,5.75,0,0,0,4.92,2.44,6.35,6.35,0,0,0,6-3.7V89a6.38,6.38,0,0,0-6-3.59,5.79,5.79,0,0,0-5,2.46Q1261.38,90.37,1261.38,95.2Z"/><path class="cls-7" d="M1284,94.69a15.1,15.1,0,0,1,1.46-6.71,10.79,10.79,0,0,1,10-6.21,10.72,10.72,0,0,1,8.38,3.59q3.19,3.58,3.2,9.54v.3a15.2,15.2,0,0,1-1.42,6.65,10.83,10.83,0,0,1-4.06,4.58,11.23,11.23,0,0,1-6.06,1.64,10.67,10.67,0,0,1-8.35-3.59A13.73,13.73,0,0,1,1284,95Zm4.36.51a10.86,10.86,0,0,0,2,6.78,6.63,6.63,0,0,0,10.48,0c1.3-1.73,2-4.14,2-7.25a10.85,10.85,0,0,0-2-6.77,6.32,6.32,0,0,0-5.26-2.59,6.24,6.24,0,0,0-5.18,2.56Q1288.39,90.44,1288.38,95.2Z"/><polyline class="cls-8" points="1015 91 603 91 603 104.92"/><polygon class="cls-9" points="594.82 98.29 596.28 96.92 603 104.15 609.71 96.92 611.18 98.29 603 107.09 594.82 98.29"/><polyline class="cls-8" points="1353 91 1765 91 1765 104.92"/><polygon class="cls-9" points="1756.82 98.29 1758.29 96.92 1765 104.15 1771.71 96.92 1773.18 98.29 1765 107.09 1756.82 98.29"/><line class="cls-1" x1="412.5" y1="107" x2="412.5" y2="113"/><line class="cls-2" x1="412.5" y1="125.06" x2="412.5" y2="1035.97"/><line class="cls-1" x1="412.5" y1="1042" x2="412.5" y2="1048"/><line class="cls-1" x1="14.5" y1="107" x2="14.5" y2="113"/><line class="cls-2" x1="14.5" y1="125.06" x2="14.5" y2="1035.97"/><line class="cls-1" x1="14.5" y1="1042" x2="14.5" y2="1048"/><path class="cls-7" d="M78.52,107.6H74V91.83H56.79V107.6h-4.5V73.48h4.5V88.15H74V73.48h4.53Z"/><path class="cls-7" d="M84.68,94.69A15.1,15.1,0,0,1,86.14,88a10.79,10.79,0,0,1,10-6.21,10.72,10.72,0,0,1,8.38,3.59q3.2,3.58,3.2,9.54v.3a15.2,15.2,0,0,1-1.42,6.65,10.83,10.83,0,0,1-4.06,4.58,11.23,11.23,0,0,1-6.06,1.64,10.67,10.67,0,0,1-8.35-3.59A13.73,13.73,0,0,1,84.68,95ZM89,95.2A10.86,10.86,0,0,0,91,102a6.63,6.63,0,0,0,10.48,0c1.3-1.73,2-4.14,2-7.25a10.85,10.85,0,0,0-2-6.77,6.31,6.31,0,0,0-5.26-2.59A6.24,6.24,0,0,0,91,87.89Q89,90.44,89,95.2Z"/><path class="cls-7" d="M135.66,101.62l4.87-19.38h4.34l-7.39,25.36H134L127.8,88.38l-6,19.22h-3.51l-7.36-25.36h4.31l5,19,5.91-19h3.49Z"/><path class="cls-7" d="M183.61,101.62l4.87-19.38h4.34l-7.38,25.36h-3.52l-6.16-19.22-6,19.22h-3.52l-7.36-25.36h4.32l5,19,5.9-19h3.5Z"/><path class="cls-7" d="M207.75,108.07a11.08,11.08,0,0,1-8.39-3.39,12.56,12.56,0,0,1-3.23-9.06v-.79a15.2,15.2,0,0,1,1.44-6.74,11.14,11.14,0,0,1,4-4.64,10.1,10.1,0,0,1,5.61-1.68A9.51,9.51,0,0,1,214.9,85q2.74,3.25,2.74,9.33v1.8H200.46a9,9,0,0,0,2.19,6.06,6.89,6.89,0,0,0,5.33,2.31,7.54,7.54,0,0,0,3.9-.94,9.61,9.61,0,0,0,2.78-2.48l2.65,2.06Q214.13,108.07,207.75,108.07Zm-.54-22.74a5.81,5.81,0,0,0-4.41,1.91,9.35,9.35,0,0,0-2.2,5.36h12.7v-.33a8.19,8.19,0,0,0-1.78-5.12A5.45,5.45,0,0,0,207.21,85.33Z"/><path class="cls-7" d="M233.48,94.71a14.9,14.9,0,0,1,2.77-9.39,9.41,9.41,0,0,1,14.3-.5V71.6h4.33v36h-4l-.21-2.72a8.83,8.83,0,0,1-7.24,3.19,8.66,8.66,0,0,1-7.19-3.61A15,15,0,0,1,233.48,95Zm4.34.49A11.21,11.21,0,0,0,239.6,102a5.75,5.75,0,0,0,4.92,2.44,6.35,6.35,0,0,0,6-3.7V89a6.38,6.38,0,0,0-6-3.59,5.8,5.8,0,0,0-5,2.46Q237.82,90.37,237.82,95.2Z"/><path class="cls-7" d="M272.13,108.07a11.09,11.09,0,0,1-8.39-3.39,12.6,12.6,0,0,1-3.23-9.06v-.79A15.2,15.2,0,0,1,262,88.09a11.14,11.14,0,0,1,4-4.64,10.13,10.13,0,0,1,5.61-1.68A9.51,9.51,0,0,1,279.28,85Q282,88.29,282,94.36v1.8H264.84a9.05,9.05,0,0,0,2.2,6.06,6.86,6.86,0,0,0,5.33,2.31,7.5,7.5,0,0,0,3.89-.94,9.78,9.78,0,0,0,2.79-2.48l2.65,2.06Q278.51,108.07,272.13,108.07Zm-.54-22.74a5.79,5.79,0,0,0-4.4,1.91A9.35,9.35,0,0,0,265,92.6h12.71v-.33a8.31,8.31,0,0,0-1.78-5.12A5.47,5.47,0,0,0,271.59,85.33Z"/><path class="cls-7" d="M291.75,107.6h-4.34v-36h4.34Z"/><path class="cls-7" d="M298.71,75.51a2.6,2.6,0,0,1,.65-1.78,2.42,2.42,0,0,1,1.91-.72,2.47,2.47,0,0,1,1.92.72,2.56,2.56,0,0,1,.65,1.78,2.46,2.46,0,0,1-.65,1.76,2.51,2.51,0,0,1-1.92.71,2.45,2.45,0,0,1-1.91-.71A2.5,2.5,0,0,1,298.71,75.51Zm4.69,32.09h-4.34V82.24h4.34Z"/><path class="cls-7" d="M318.7,101.72,325,82.24h4.43l-9.09,25.36H317l-9.19-25.36h4.43Z"/><path class="cls-7" d="M343.8,108.07a11.09,11.09,0,0,1-8.39-3.39,12.6,12.6,0,0,1-3.23-9.06v-.79a15.2,15.2,0,0,1,1.44-6.74,11.21,11.21,0,0,1,4-4.64,10.14,10.14,0,0,1,5.62-1.68A9.49,9.49,0,0,1,351,85q2.74,3.25,2.75,9.33v1.8H336.52a9,9,0,0,0,2.19,6.06,6.88,6.88,0,0,0,5.33,2.31,7.5,7.5,0,0,0,3.89-.94,9.78,9.78,0,0,0,2.79-2.48l2.65,2.06Q350.18,108.07,343.8,108.07Zm-.53-22.74a5.81,5.81,0,0,0-4.41,1.91,9.28,9.28,0,0,0-2.2,5.36h12.7v-.33a8.31,8.31,0,0,0-1.78-5.12A5.45,5.45,0,0,0,343.27,85.33Z"/><path class="cls-7" d="M371,86.13a13,13,0,0,0-2.13-.16q-4.27,0-5.79,3.63v18h-4.34V82.24h4.22l.07,2.93a6.75,6.75,0,0,1,6.05-3.4,4.42,4.42,0,0,1,1.92.33Z"/><polyline class="cls-8" points="378 91 412 91 412 104.92"/><polygon class="cls-9" points="403.82 98.29 405.29 96.92 412 104.15 418.71 96.92 420.18 98.29 412 107.09 403.82 98.29"/><polyline class="cls-8" points="48 91 14 91 14 104.92"/><polygon class="cls-9" points="5.82 98.29 7.29 96.92 14 104.15 20.71 96.92 22.18 98.29 14 107.09 5.82 98.29"/></svg>